<svg id="atomic-bomb" xmlns="http://www.w3.org/2000/svg" width="24" height="24" viewBox="0 0 24 24">
  <g id="Frames-24px">
    <rect id="Rectangle_35" data-name="Rectangle 35" width="24" height="24" fill="none"/>
  </g>
  <g id="Outline" transform="translate(1 2)">
    <path id="Path_15" data-name="Path 15" d="M20.754,21.015,20.582,21c-.058,0-.154.006-.284.016-.179.013-.451.034-.781.034-2.721,0-4.18-1.334-4.458-4.049H19V15H15V13h3.363A4.409,4.409,0,0,0,23,8.636,4.642,4.642,0,0,0,18.363,4a5.063,5.063,0,0,0-2.271.492,4.606,4.606,0,0,0-8.184,0A5.067,5.067,0,0,0,5.637,4,4.642,4.642,0,0,0,1,8.636,4.407,4.407,0,0,0,5.637,13H9v2H5v2H8.942c-.278,2.715-1.738,4.049-4.458,4.049-.331,0-.6-.021-.781-.034C3.572,21.006,3.476,21,3.418,21l-.172.015A1.5,1.5,0,0,0,3.5,24H20.5a1.5,1.5,0,0,0,.258-2.985ZM10,11H5.637A2.44,2.44,0,0,1,3,8.636,2.64,2.64,0,0,1,5.637,6a2.486,2.486,0,0,1,2.01.777,1,1,0,0,0,1.757-.5,2.619,2.619,0,0,1,5.192,0,1,1,0,0,0,1.757.5A2.487,2.487,0,0,1,18.363,6,2.64,2.64,0,0,1,21,8.636,2.44,2.44,0,0,1,18.363,11H14a1,1,0,0,0-1,1v3H11V12A1,1,0,0,0,10,11ZM8.365,22a6.356,6.356,0,0,0,2.593-5h2.083a6.34,6.34,0,0,0,2.422,4.875c.059.043.119.085.179.125Z" transform="translate(-1 -2)" fill="#fafcff"/>
  </g>
</svg>
