<svg xmlns="http://www.w3.org/2000/svg" width="177.548" height="14.217" viewBox="0 0 177.548 14.217">
  <g id="brush-stroke-banner-6-cover" transform="translate(-27.381 282.564)">
    <path id="Path_16" data-name="Path 16" d="M299.967-282.432a1.741,1.741,0,0,1-.882.114.463.463,0,0,0-.512.142c-.256.4,4.012.6,15.905.768,5.89.085,10.072.028,9.816-.114C323.384-282.062,301.02-282.887,299.967-282.432Z" transform="translate(-180.293)" fill="#3d444d"/>
    <path id="Path_17" data-name="Path 17" d="M286.767-281.444c-.37.114-.6.313-.512.4.085.114.4.085.683-.028a3.049,3.049,0,0,1,1.167-.171c.341.028.626-.057.626-.2C288.73-281.785,287.678-281.785,286.767-281.444Z" transform="translate(-174.101 -0.618)" fill="#3d444d"/>
    <path id="Path_18" data-name="Path 18" d="M230.816-279.659c-.626.028-2.362.228-3.841.4s-3.158.341-3.7.4c-1.423.114-2.276.427-2.276.854,0,.285.228.313.8.171a14.108,14.108,0,0,1,2.447-.285,6.646,6.646,0,0,0,1.992-.256c.4-.228,1.081-.256,6.43-.341,2.7-.028,4.126-.142,3.7-.285-.4-.114-.541-.228-.341-.256.171-.028.341-.171.341-.313C236.365-279.829,233.519-279.886,230.816-279.659Z" transform="translate(-129.452 -1.977)" fill="#3d444d"/>
    <path id="Path_19" data-name="Path 19" d="M392.352-278.6a3.809,3.809,0,0,0,1.138,0c.256-.085-.028-.142-.654-.114C392.21-278.719,391.982-278.662,392.352-278.6Z" transform="translate(-245.463 -2.746)" fill="#3d444d"/>
    <path id="Path_20" data-name="Path 20" d="M400.48-278.127c-.427.142-.028.2,1.11.228a6.594,6.594,0,0,0,1.764-.085C403.354-278.212,401.134-278.3,400.48-278.127Z" transform="translate(-250.769 -3.11)" fill="#3d444d"/>
    <path id="Path_21" data-name="Path 21" d="M279.392-276.586a4.821,4.821,0,0,0,1.28,0c.341-.057.057-.114-.654-.114S279.022-276.643,279.392-276.586Z" transform="translate(-169.452 -4.196)" fill="#3d444d"/>
    <path id="Path_22" data-name="Path 22" d="M130.143-273.7c-.065.017-6.371.051-14.017.086-12.285.043-17.611.12-26.138.36-1.993.06-2.091.051-1.666-.086s.425-.163,0-.232a9.513,9.513,0,0,0-1.209-.077c-.915,0-11.4.455-14.866.652-1.307.069-3.235.146-4.313.163s-3.2.077-4.738.129-4.836.12-7.351.172c-7.123.154-15.323.515-14.768.652.065.017,1.928-.026,4.182-.094,5.032-.154,7.907-.154,4.051,0l-2.614.1,3.594.026c3.365.009,3.529.017,2.45.129-.621.06-1.111.154-1.046.206.033.051-.392.094-1.013.094-1.274,0-1.666.069-1.176.223a5.1,5.1,0,0,0,1.4.06c1.5-.06,1.83.12.359.2-.653.026-1.111.094-1.046.154a15.159,15.159,0,0,0,3.561-.086c.915-.12,1.764-.094,1.4.043a38.608,38.608,0,0,1-4.77.223,6.513,6.513,0,0,0-1.438.077,5.284,5.284,0,0,1-2.189.043c-.1-.077-.327-.077-.882,0-.392.06-.653.154-.588.206a38.69,38.69,0,0,0,5.946-.009c1.438-.051,3.725-.094,5.064-.086,2.254,0,2.352.009.98.077-.817.034-2.189.069-3.039.069a5.154,5.154,0,0,0-1.4.086c.1.034,0,.129-.229.206a19.354,19.354,0,0,1-3.725.189c-1.83.026-3.659.077-4.084.129-.719.069-.719.077.163.077a2.333,2.333,0,0,1,.882.094,10.852,10.852,0,0,0,1.96.086c1.536,0,1.9.026,1.764.12a8.5,8.5,0,0,1-1.83.18c-.948.034-1.47.086-1.242.129.2.034-.392.051-1.372.034-1.176-.017-1.438-.009-.784.034l.948.06-1.111.1c-.621.051-2.287.163-3.692.24a26.283,26.283,0,0,0-2.941.257,5.5,5.5,0,0,1-1.013.189,15.667,15.667,0,0,0-2.777.489,6.338,6.338,0,0,0,1.372.026c1.7-.06,3.463.017,2.81.12-.359.06-.327.094.065.163.261.043.425.086.327.086a29.97,29.97,0,0,0-3.692.412c.1.1-.588.146-4.313.274-2.908.1-3.79.223-2.189.309.555.034.948.086.849.129s.163.077.588.077c.621,0,.653.017.261.094-.359.069-.065.077,1.176.043.915-.034,2.156-.009,2.777.043s1.34.111,1.6.137c.392.026.327.069-.294.189-.719.146-.751.163-.2.24.457.069,0,.1-1.993.154-2.156.051-2.483.077-1.993.172.294.06.555.146.555.206a10.473,10.473,0,0,0,2.222.094c1.9.009,2.124.017,1.634.12-.327.06-.588.154-.588.214s-.294.094-.686.094c-1.34,0-3.627.189-3.169.266a8.212,8.212,0,0,0,1.176.077c.49,0,.719.051.719.163,0,.163-.817.266-2.32.266a9.434,9.434,0,0,0-1.47.129c-.588.12-.588.12.2.12.457,0,2.581-.034,4.738-.077,4.574-.094,9.312.034,8.037.206-.621.094-.523.112,1.176.206a67.288,67.288,0,0,0,7.286.051c.294-.077.033-.086-1.046-.034-.784.043-1.47.051-1.536.034-.425-.1.686-.163,3.594-.18,1.8-.009,3.888-.077,4.64-.146,2.352-.206,8.43-.558,11.337-.652,3.071-.094,15.618-.017,14.539.094-.359.034-1.111.069-1.7.069a5.157,5.157,0,0,0-1.307.129,19.537,19.537,0,0,1-2.581.292c-2.646.2-4.084.369-3.463.429.229.017.327.112.2.223-.1.12.065.24.457.343.588.137.948.137,4.051.043,1.83-.051,3.627-.137,3.953-.18s3.267-.137,6.535-.206,6.894-.154,8.07-.18c1.536-.034,1.928-.069,1.47-.12s-.131-.069,1.144-.077c4.051-.026,7.809-.094,9.965-.172,1.274-.043,4.607-.1,7.449-.12a45.456,45.456,0,0,0,5.652-.172c.425-.12,1.83-.137,10.031-.137,5.26,0,10.782.034,12.318.086s5.914.1,9.769.129c7.253.051,10.651.112,20.29.352,6.6.163,5.979.154,10.553.137a15.619,15.619,0,0,0,3.3-.112c-.131-.069.033-.077.523-.034s.653.034.523-.034c-.163-.06.131-.094.784-.094,1.83,0,.719-.146-1.96-.257a23.287,23.287,0,0,1-2.614-.18c0-.1.555-.094,1.928.009a16.454,16.454,0,0,0,1.928.026l.817-.051-.947-.112-.947-.1.98-.009c.555,0,1.6.034,2.385.069,1.176.06,1.372.051,1.372-.077,0-.1-.359-.172-1.144-.206-.621-.034-1.536-.111-2.026-.18l-.915-.129,1.307-.017c.719-.009,1.764-.017,2.287-.026,1.7-.009,3.267-.137,2.745-.223-.359-.06-.327-.077.131-.077.719,0,.719-.163,0-.309-.523-.094-.49-.112.392-.163,2.352-.129,2.45-.3.294-.463-1.993-.146-1.438-.24,1.8-.3,1.274-.026,2.483-.069,2.679-.094.523-.094.327-.274-.392-.326-.392-.026-.588-.086-.49-.137.131-.051-.1-.112-.523-.129-1.96-.112-1.862-.129.555-.1,2.679.034,4.28-.051,3.921-.206a4.148,4.148,0,0,0-.947-.086c-.425,0-1.242-.051-1.764-.112-.948-.1-.98-.112-.392-.214a9.116,9.116,0,0,1,1.274-.1c.457,0,.588-.043.457-.172-.163-.154,0-.172,1.242-.172.915,0,1.274-.026,1.013-.077-.555-.086-.457-.189.229-.326s.294-.163-2.581-.24c-2.941-.077-3.921-.137-3.921-.232a22.47,22.47,0,0,1,3.039-.034c2.875.043,2.941.043,1.5-.069-.817-.06-1.764-.154-2.124-.206-.523-.086-.425-.094.686-.1,2.124-.009,2.418-.137.425-.214-1.732-.06-1.732-.06-.751-.154l.98-.1-1.307-.043-1.307-.051,1.144-.086,1.144-.086-1.078-.06c-.621-.034-1.013-.094-.882-.146a2.923,2.923,0,0,1,.915-.043,18.825,18.825,0,0,0,2.026-.034c.719-.043,1.078-.077.784-.086s-1.5-.094-2.712-.189c-1.568-.129-2.156-.214-2.026-.3s-.1-.12-.817-.12c-.555,0-2.124-.077-3.5-.163-1.4-.094-4.051-.2-5.914-.232-3.137-.051-3.333-.069-2.45-.172a3.2,3.2,0,0,0,.784-.12c-.392-.034-6.273-.18-8.952-.232-4.672-.077-2.581-.2,3.888-.206,5.358-.017,5.62-.017,2.941-.086-1.6-.034-5.816-.111-9.312-.163-6.077-.094-7.515-.137-13.069-.334-1.34-.043-5.228-.129-8.658-.18-3.4-.051-6.927-.12-7.841-.154l-1.634-.051,1.634-.06c.915-.034,4.738,0,8.495.06,3.79.069,8.495.12,10.455.112,1.993,0,4.934-.009,6.535-.009,2.581,0,2.32-.009-2.254-.111-2.843-.069-5.26-.146-5.391-.172a23.034,23.034,0,0,1,2.418-.009c1.438.026,4.542.069,6.861.094,2.352.026,4.542.069,4.9.086s1.144.009,1.764-.026c2.189-.129-7.907-.36-24.472-.566-9.05-.12-15.977-.223-22.74-.352C131.156-273.708,130.209-273.717,130.143-273.7Zm-73.22,2.685c-.327.017-.849.017-1.144,0-.327-.026-.065-.043.555-.043S57.218-271.041,56.924-271.015Zm139.022,1.029a6.484,6.484,0,0,1-.817,0c-.229-.026-.065-.043.392-.043S196.142-270.012,195.946-269.986ZM89.27-262.609c-.327.017-.849.017-1.144,0-.327-.026-.065-.043.555-.043S89.564-262.635,89.27-262.609Z" transform="translate(0 -6.335)" fill="#3d444d"/>
    <path id="Path_23" data-name="Path 23" d="M497-262.886a1.937,1.937,0,0,0,.854.228c.484.085.854.028.854-.114,0-.114-.37-.228-.854-.228A1.833,1.833,0,0,0,497-262.886Z" transform="translate(-313.067 -13.998)" fill="#3d444d"/>
    <path id="Path_24" data-name="Path 24" d="M478.95-260.658a2.148,2.148,0,0,0,.854,0c.171-.085-.028-.142-.512-.142C478.836-260.8,478.666-260.743,478.95-260.658Z" transform="translate(-300.054 -15.572)" fill="#3d444d"/>
    <path id="Path_25" data-name="Path 25" d="M488.333-260.318c.711.256,5.093.512,4.609.256a13.973,13.973,0,0,0-2.76-.341C488.845-260.489,488.02-260.432,488.333-260.318Z" transform="translate(-306.819 -15.826)" fill="#3d444d"/>
    <path id="Path_26" data-name="Path 26" d="M84.4-252.715c-.085.142-.028.285.114.285a.312.312,0,0,0,.313-.285c0-.171-.057-.285-.114-.285C84.627-253,84.485-252.886,84.4-252.715Z" transform="translate(-40.766 -26.747)" fill="#3d444d"/>
    <path id="Path_27" data-name="Path 27" d="M88.579-238.713c-.541.228-.114.626.512.455.313-.085.484-.256.4-.4C89.319-238.941,89.148-238.941,88.579-238.713Z" transform="translate(-43.608 -39.543)" fill="#3d444d"/>
    <path id="Path_28" data-name="Path 28" d="M90.585-230.8c-.057.114.313.171.854.114a2.271,2.271,0,0,0,.967-.228C92.406-231.14,90.728-231.026,90.585-230.8Z" transform="translate(-45.217 -46.572)" fill="#3d444d"/>
    <path id="Path_29" data-name="Path 29" d="M39.754-179.6c-.683.228-.683.228.142.228a4.14,4.14,0,0,0,1.423-.228c.512-.228.512-.256-.142-.228A6.179,6.179,0,0,0,39.754-179.6Z" transform="translate(-8.497 -92.894)" fill="#3d444d"/>
    <path id="Path_30" data-name="Path 30" d="M71.469-141.3a2.035,2.035,0,0,0,1.2.256c1.28,0,1.138-.142-.285-.37C71.754-141.5,71.384-141.474,71.469-141.3Z" transform="translate(-31.535 -128.06)" fill="#3d444d"/>
  </g>
</svg>
