<svg xmlns="http://www.w3.org/2000/svg" width="119.359" height="106.717" viewBox="0 0 119.359 106.717">
  <g id="Screen-Shot-2020-01-18-at-5.56.38-PM" transform="translate(-20.581 219.459)">
    <path id="Path_145" data-name="Path 145" d="M64.209-219.17a2.93,2.93,0,0,0-1.656,1.449c-.207.776-.673.88-3.156.673-2.018-.155-2.9-.052-2.9.362,0,.362-.517.569-1.242.466a3.412,3.412,0,0,0-2.121.621,2.627,2.627,0,0,1-1.242.673c-.776-.207-9.572,4.864-13.97,8.02-4.915,3.518-6.054,4.76-4.45,4.76.621,0,.776.31.517,1.035s-.1,1.035.466,1.035c1.19,0,1.035.31-1.4,3.26a38.569,38.569,0,0,0-6.778,13.194,41.091,41.091,0,0,0-.828,8.951c0,3.415-.207,5.64-.517,5.64-.724,0-.673-14.074.052-15.885.31-.776.776-1.914.983-2.484a37.11,37.11,0,0,1,4.708-8.486c1.19-1.6,1.863-2.949,1.656-3.311a2.792,2.792,0,0,1-.259-1.5c.31-1.759-.88-1.345-3.208,1.138-1.863,2.018-2.38,2.846-2.121,3.674.259.776.207.983-.207.776-.31-.207-.569,0-.569.414,0,.466-.259.776-.517.673-.517-.1-1.242.983-2.587,3.829a4.6,4.6,0,0,0-.31,2.587c.155.673.155.931,0,.569-.155-.31-.517-.517-.776-.31-.621.362-.621,2.794.052,2.794.569,0,.724,4.036.207,5.381a1.149,1.149,0,0,1-.931.828c-.414,0-.569,1.242-.517,3.984.052,5.64.1,5.95.828,5.536.362-.259.414-.155.1.362-.673,1.138-.052,5.9.724,5.433.207-.1.362.776.362,1.914,0,1.966.155,2.173,1.242,2.173a1.666,1.666,0,0,1,1.5.673c.155.466-.155.621-.724.517-.724-.1-1.035.207-1.138,1.345-.207,1.811.724,3,1.449,1.863s2.277,2.794,2.277,5.8c.052,1.4.259,2.484.466,2.484.259,0,.259.466.1,1.035-.259.724-.1,1.035.517,1.035.466,0,.776.31.673.621-.207,1.035,1.138,3.053,1.707,2.691.673-.414,3.053,1.811,3.053,2.846.052.673.207.621.828-.207.517-.673.88-.828,1.138-.466a97.155,97.155,0,0,0,8.848,10.4,23.65,23.65,0,0,1,3.363,3.881c.673,1.294,3.829,3.053,10.141,5.588A63.657,63.657,0,0,1,64-116.256a22.685,22.685,0,0,0,4.4,1.5c1.552.362,3.674.88,4.708,1.138,5.692,1.449,20.334,1.035,28.147-.776,1.707-.414,4.6-1.035,6.468-1.4a29.836,29.836,0,0,0,5.95-1.811c1.449-.621,3.57-1.5,4.76-1.914,3.26-1.087,8.693-5.381,10.659-8.33,1.914-2.949,6.726-12.263,7.3-14.281,1.6-5.485,2.9-11.538,2.9-13.815a15.084,15.084,0,0,1,.466-3.932c.569-1.449-.259-13.091-1.035-14.436a5.192,5.192,0,0,1-.466-1.914,1.674,1.674,0,0,0-.466-1.294,7.122,7.122,0,0,1-.828-2.846c-.207-1.449-.673-2.691-1.087-2.846a1.043,1.043,0,0,1-.724-.828c0-1.811-3.777-7.761-4.967-7.761a26.144,26.144,0,0,1-4.191-3.518c-2.742-2.535-3.622-3.674-3.311-4.191.414-.621.621-.621,1.345.1.983,1.035,1.863,1.138,1.5.207-.414-1.138-2.328-2.07-2.949-1.449a2.228,2.228,0,0,1-3.467-.724,3.705,3.705,0,0,0-1.759-1.6,6.093,6.093,0,0,1-2.018-1.294,3.362,3.362,0,0,0-2.173-.983c-3.156,0-11.331-6.416-9.106-7.14,1.087-.362.569-1.656-.828-2.225a15.725,15.725,0,0,1-3.26-1.759c-1.345-.931-2.846-1.345-5.95-1.6a17.571,17.571,0,0,1-4.657-.776c-.621-.466-3.932-.31-4.864.259a1.2,1.2,0,0,1-1.242-.1C82.37-219.325,65.917-219.791,64.209-219.17ZM82.888-188.9c5.071.517,13.3,4.139,17.644,7.709,3.881,3.208,6.416,5.8,7.037,7.14.517,1.087.776,1.656,2.173,5.174.724,1.863.724,11.59,0,13.867-1.5,4.657-3.1,7.192-5.278,8.33a82.359,82.359,0,0,1-17.178,5.9,19.612,19.612,0,0,1-8.02.207c-4.295-.569-7.14-1.242-8.9-2.121a4.479,4.479,0,0,0-1.656-.466c-1.19,0-6.623-5.8-8.227-8.744-2.328-4.346-5.019-13.091-5.019-16.2.052-3.881,1.19-8.8,2.484-10.659a25.635,25.635,0,0,1,11.021-8.279,38.565,38.565,0,0,1,5.64-1.707,6.661,6.661,0,0,0,2.328-.466,4.1,4.1,0,0,1,2.07-.259A34.73,34.73,0,0,0,82.888-188.9ZM26.076-163.548c-.466.776-.621.569-1.138-1.242-.724-2.846-.1-3.984.88-1.5C26.334-165,26.438-164.169,26.076-163.548Zm2.484,10.3c0,.414-.207.776-.517.776-.259,0-.517-.362-.517-.776s.259-.776.517-.776C28.352-154.028,28.559-153.665,28.559-153.251Zm1.035,2.535a5.624,5.624,0,0,0,.362,1.707c.31.88.31.88-.517.052-.983-.931-1.19-2.484-.362-2.484C29.387-151.44,29.594-151.13,29.594-150.716Zm24.422,7.3c.517,1.138.466,1.5-.466,2.432-1.294,1.242-2.484.828-1.707-.621a5.54,5.54,0,0,0,.517-2.018C52.36-145.128,53.292-144.973,54.016-143.421Z" fill="#f5f9ff"/>
    <path id="Path_146" data-name="Path 146" d="M49.5-55.472c-.466.466.673,2.121,2.691,4.036,2.742,2.535,3,2.225.828-.983C51.211-55.161,50.124-56.093,49.5-55.472Z" transform="translate(-13.907 -79.049)" fill="#f5f9ff"/>
    <path id="Path_147" data-name="Path 147" d="M62-41.483a.556.556,0,0,0,.517.517.518.518,0,0,0,.517-.517A.489.489,0,0,0,62.517-42,.518.518,0,0,0,62-41.483Z" transform="translate(-19.988 -85.639)" fill="#f5f9ff"/>
    <path id="Path_148" data-name="Path 148" d="M67-33.483a.567.567,0,0,0,.569.517c.259,0,.362-.259.207-.517-.155-.31-.414-.517-.569-.517C67.1-34,67-33.793,67-33.483Z" transform="translate(-22.401 -89.5)" fill="#f5f9ff"/>
  </g>
</svg>
