<svg xmlns="http://www.w3.org/2000/svg" width="155.414" height="232.986" viewBox="0 0 155.414 232.986">
  <g id="Screen-Shot-2020-01-18-at-5.18.18-PM" transform="matrix(0.07, -0.998, 0.998, 0.07, 386.842, 257.583)">
    <path id="Path_49" data-name="Path 49" d="M55.84-387.324c-.225.6-.562.974-.749.862s-.674.15-1.049.6a10.729,10.729,0,0,1-1.724,1.386,16.727,16.727,0,0,0-2.773,3.035c-.974,1.349-1.948,2.623-2.173,2.885a28.9,28.9,0,0,0-1.724,2.361c-.712,1.049-2.623,3.672-4.2,5.808-1.611,2.173-2.923,4.234-2.923,4.646a2.1,2.1,0,0,1-1.124,1.386,4.242,4.242,0,0,0-1.237,1.049c-.262.674-6.857,10.042-8.019,11.391a10.488,10.488,0,0,0-1.424,2.136,7.531,7.531,0,0,1-1.461,1.874c-.787.749-.937,1.087-.637,1.461.337.412.225.787-.525,1.649a4.29,4.29,0,0,0-.937,1.461,2.184,2.184,0,0,1-.749,1.049,2.2,2.2,0,0,0-.749,1.274,4.419,4.419,0,0,1-1.124,1.911,6.469,6.469,0,0,0-1.124,1.761c0,.262-.337.674-.749.937s-.749.674-.749.9c0,.375-3.26,4.646-4.684,6.183a3.715,3.715,0,0,0-.787,1.686,26.626,26.626,0,0,1-1.649,4.084A13.133,13.133,0,0,0,9.489-320.4c.225.225,1.649-1.574,1.686-2.1a4.3,4.3,0,0,1,.9-1.5,5.4,5.4,0,0,0,1.049-1.986c.112-1.049,1.8-1.611,1.8-.637a.845.845,0,0,1-.262.712,23.662,23.662,0,0,0-3.148,4.684c-.974,1.724-.749,2.586.337,1.237l.712-.862-.075,1.237a2.716,2.716,0,0,1-.824,1.836,5.173,5.173,0,0,0-1.162,1.686c-.412.9-.375,1.162.075,1.686.487.562.525.749.075,1.386A6.9,6.9,0,0,0,9.864-311L9.6-309.684l.787-.712a2.483,2.483,0,0,0,.787-1.237.54.54,0,0,1,.562-.487c.787,0,.712.525-.375,2.1-1.349,1.986-1.124,2.473.337.749,1.124-1.311,1.274-1.386,1.649-.787.337.637.375.637.6-.112a1.727,1.727,0,0,0,0-1.237c-.187-.3,0-.375.525-.262.562.15.862.037,1.012-.45.225-.712,1.311-1.349,1.311-.749a5.675,5.675,0,0,1-.974,1.461c-.637.787-.862,1.386-.712,1.911.112.412.075.749-.112.749-.375,0-.9,1.536-.637,1.836.112.075.6-.225,1.087-.674.712-.637.974-.749,1.2-.337a2.465,2.465,0,0,1,.075,2.436c-.3.375-.187.487.412.487.862,0,1.049.712.375,1.386-.487.487-.112,1.986.487,1.986.225,0,.3-.337.187-.749-.262-.974.412-.937,1.461.037l.862.824,1.049-1.274a28.93,28.93,0,0,1,2.623-2.81c.862-.862,2.211-2.286,2.96-3.185.712-.862,2.96-3.372,4.946-5.508s3.785-4.159,3.972-4.5a17.006,17.006,0,0,1,2.1-2.323c.937-.937,3.335-3.635,5.321-6,3.934-4.646,6.033-6.745,6.82-6.745.3,0,.487.525.525,1.386a64.313,64.313,0,0,0,2.473,11.916,29.419,29.419,0,0,1,1.2,3.372c1.087,3.6,8.319,17.311,9.555,18.173a32.191,32.191,0,0,1,2.136,3c1.049,1.536,2.735,3.859,3.785,5.134a32.476,32.476,0,0,1,2.623,3.747,27.221,27.221,0,0,0,3.56,4.309A18.4,18.4,0,0,1,79-279.558a.381.381,0,0,0,.337.412,30.908,30.908,0,0,1,3.859,3.26,69.233,69.233,0,0,0,10.042,8.131c.937.6,2.136,1.386,2.7,1.8a5.3,5.3,0,0,0,1.237.674,17.479,17.479,0,0,1,2.173,1.237c2.585,1.611,9.855,5.133,10.642,5.133a10.3,10.3,0,0,1,2.511.9,18.346,18.346,0,0,0,2.923,1.162,3.866,3.866,0,0,1,1.649.974,2.352,2.352,0,0,0,1.461.712,9.375,9.375,0,0,1,3.934,1.274c.787.637,3.9,1.536,9.742,2.885,2.773.637,5.133,1.2,5.283,1.274.262.187,10.792,1.311,12.141,1.311.6,0,.937-.225.937-.562q0-.562,1.124-.562c.637,0,1.124.187,1.124.45s.375.525.862.562c.45.037,1.574.187,2.473.337,1.686.225,5.658-.45,5.658-1.012,0-.45,4.084-.824,4.609-.412.674.525,2.885.937,2.885.525,0-.187-.375-.45-.824-.562-1.162-.337-.787-.487,1.5-.749,1.611-.187,1.986-.15,1.836.3-.375.937,1.948,1.311,2.735.412a2.264,2.264,0,0,1,1.237-.712c.45-.075.187-.112-.562-.037-.787.112-1.424.075-1.424-.037,0-.45,2.248-1.237,4.122-1.424a25.124,25.124,0,0,0,3.859-.749c1.536-.487,1.761-.487,1.761,0,0,.3.262.487.674.412a.663.663,0,0,0,.525-.749c-.075-.45.262-.712,1.237-.9,1.5-.262,2.136.075,1.311.637-.487.337-.487.375,0,.187.3-.075,1.461-.487,2.548-.824a5.21,5.21,0,0,0,1.948-.974c0-.187-.187-.225-.375-.112-.225.112-.375.037-.375-.187,0-.337.45-.6,2.81-1.5a77.3,77.3,0,0,0,11.166-5.7,17.5,17.5,0,0,1,2.81-1.8,7.775,7.775,0,0,0,1.724-1.311,7.971,7.971,0,0,1,1.686-1.311c.6,0,4.759-3.41,8.693-7.157a6.455,6.455,0,0,1,1.649-1.2c.637-.262.749-.862.15-1.2-.225-.15-.6.037-.9.412-.262.412-.637.6-.787.45-.525-.562.712-1.424,2.1-1.424,1.237,0,1.461-.15,1.836-1.162.525-1.5,2.173-3.485,3.148-3.71.824-.225,3-4.009,2.473-4.309-.45-.3-.45-1.311.037-1.311.225,0,.375.262.375.562,0,.787.749.712.787-.112.037-.337.075-.9.112-1.2.037-.674.937-.787,1.686-.225.412.337.487.3.337-.15a1.714,1.714,0,0,1,.15-1.2c.412-.862,0-.862-.937,0-.562.45-.787.525-.9.15-.225-.637-.862-.562-.862.112a1.539,1.539,0,0,1-.749,1.012c-.412.262-.749.637-.749.824a2.191,2.191,0,0,1-.637,1.049c-.562.637-.562.674,0,.674.375,0,.637.15.637.375,0,.187-.262.375-.6.375-.45,0-.562.262-.45.937.112.525.037.937-.112.937a.37.37,0,0,1-.337-.375c0-.637-.749-.412-1.012.262-.225.637-1.424,1.986-1.761,1.986-.075,0-.262-.262-.375-.562-.15-.375.112-.712.712-1.012a2.239,2.239,0,0,0,1.162-1.574,2.652,2.652,0,0,1,.637-1.424c.225-.15.3-.375.112-.562-.15-.15-.45,0-.674.412a7.056,7.056,0,0,1-1.274,1.461,2.492,2.492,0,0,0-.9,1.386c0,.9-.412,1.2-1.012.712-.525-.45-1.5.412-2.511,2.286a18.377,18.377,0,0,1-2.923,3c-1.274,1.087-2.848,2.511-3.447,3.073-1.611,1.611-3.148,2.623-3.372,2.248s.674-1.761,1.162-1.761a4.706,4.706,0,0,0,1.986-2.023c0-.187.375-.412.824-.487a1.149,1.149,0,0,0,.974-.787c.187-1.012-.375-.749-2.173,1.049a7.489,7.489,0,0,1-2.286,1.686,2.2,2.2,0,0,0-1.274.749,13.708,13.708,0,0,1-2.4,1.761,21.11,21.11,0,0,0-2.1,1.311,33.9,33.9,0,0,1-5.471,3.672c-2.548,1.087-1.274-.9,1.386-2.061a10.849,10.849,0,0,0,2.248-1.424c.6-.487,1.948-1.461,2.96-2.136,2.923-1.948,4.684-3.522,10.717-9.48,3.073-3.073,5.508-5.733,5.4-5.883-.112-.187-.712.187-1.311.862-.562.637-1.2,1.087-1.349.937s.375-.974,1.124-1.8a6.305,6.305,0,0,0,1.349-1.911c0-.375-4.2,3.972-4.459,4.609-.075.225.225.187.674-.037,1.461-.787.787.15-2.1,3.035-2.585,2.511-5.358,4.422-6.445,4.422-.637,0-4.534,2.623-4.534,3,0,.562.412.45,1.2-.262.375-.337.787-.487.937-.375.3.337-.974,1.761-1.574,1.761a2.069,2.069,0,0,0-1.087.712,3.407,3.407,0,0,1-1.574.937c-.487.15-.9.412-.9.6,0,.225-.262.375-.6.375-.487,0-.525-.112-.187-.525a1.519,1.519,0,0,0,.375-.824c-.15-.9.112-1.311,1.012-1.649.787-.3.937-.562.749-1.274-.262-1.124.525-1.836,1.911-1.686,1.049.112,3.859-1.574,3.859-2.323,0-.674-1.049-.3-1.649.6-.562.862-1.724,1.311-1.724.637a15.772,15.772,0,0,1,2.061-2.473,10.082,10.082,0,0,0,1.874-2.436,3.218,3.218,0,0,0-1.124-.262c-.674-.075-.937.075-.937.562,0,.974-1.836,2.848-2.848,2.923-.862.075-1.461.412-6.895,3.747-1.948,1.237-3.222,1.761-4.122,1.761a2.974,2.974,0,0,0-1.686.412,18.539,18.539,0,0,1-5.546,2.286,2.045,2.045,0,0,0-1.237.862,2.006,2.006,0,0,1-1.724.787,2.98,2.98,0,0,0-1.761.525c-.674.562-3.785,1.162-3.785.712a2.54,2.54,0,0,1,.562-1.012c.45-.6.637-.637,1.124-.225s.562.337.562-.487c0-1.2.525-1.536,1.536-1.012.6.337.862.3,1.2-.112.45-.525,1.8-.974,3.635-1.124a1.573,1.573,0,0,0,1.311-.937c.262-.637.6-.787,1.162-.674.487.15.9,0,1.012-.3a2.457,2.457,0,0,1,1.611-.749c1.724-.337,3.148-1.237,3.185-2.061,0-.375.075-.412.225-.15.112.337.562.262,1.649-.262.787-.412,1.461-.937,1.461-1.124,0-.225-.412-.112-.937.225s-.937.45-.937.225c0-.337.674-.862,4.422-3.522.974-.712,1.162-1.049.974-1.8-.3-1.311-.337-1.311-1.574-.412a5.882,5.882,0,0,1-1.349.787,20.388,20.388,0,0,0-2.66,1.8,20.1,20.1,0,0,1-5.059,3,4.433,4.433,0,0,1-1.986.562c-.525-.3.412-1.087,1.948-1.611,1.611-.525,2.623-1.761,1.049-1.311a8.243,8.243,0,0,0-1.649.787c-1.012.637-2.511.712-2.136.112a3.265,3.265,0,0,1,1.237-.862,39.051,39.051,0,0,0,7.382-4.5c1.162-1.012,1.349-1.386,1.012-1.761-.375-.375-.6-.225-1.124.712-.375.674-.824,1.2-1.049,1.2a12.3,12.3,0,0,0-2.511,1.5c-1.386.937-2.173,1.311-2.173.974a.877.877,0,0,1,.6-.749c.337-.15.562-.337.45-.45-.412-.412-2.173.749-2.173,1.461,0,.6-.187.674-.974.487-.787-.225-.937-.15-.787.3.187.412-.262.787-1.5,1.349a5.023,5.023,0,0,1-2.248.562c-.3-.075-.412,0-.3.187.112.225,0,.375-.337.375a.771.771,0,0,1-.674-.375c-.187-.6-2.511.412-2.773,1.2-.187.674-4.984,2.361-5.4,1.911-.112-.112.037-.3.3-.375.712-.262.525-.862-.3-.862-.412,0-.749-.187-.749-.375,0-.225.3-.375.674-.375a1.68,1.68,0,0,0,.974-.262c.225-.225,1.948-.749,6.595-1.986a2.813,2.813,0,0,0,1.424-.712.729.729,0,0,1,.674-.412,6.328,6.328,0,0,0,1.836-.749,6.235,6.235,0,0,1,1.8-.749,3.125,3.125,0,0,0,1.386-.824,3.007,3.007,0,0,1,1.311-.862c.749,0,1.761-1.237,1.274-1.536-.3-.187-.15-.487.45-.937,1.237-.974,1.5-.9,1.237.3l-.262,1.049.9-.787a5.519,5.519,0,0,1,1.836-1.087,4.429,4.429,0,0,0,1.611-.974,10.745,10.745,0,0,1,1.686-1.386c1.686-1.049,2.323-1.724,2.323-2.286,0-.45-.112-.45-.45-.112-.637.637-1.049.562-1.049-.15,0-.824-.337-.637-4.609,2.248a61.2,61.2,0,0,1-6.108,3.6c-1.311.637-2.323,1.311-2.211,1.536.15.187.487.187.937-.037.937-.487,1.124-.487,1.124.187,0,.337-.45.749-1.012.974-.6.225-2.1.937-3.41,1.536a6.2,6.2,0,0,1-2.585.9c-.3-.3,1.461-1.686,2.173-1.724.637,0,2.1-1.386,1.8-1.686a3.956,3.956,0,0,0-1.686.562c-.787.375-2.286,1.049-3.26,1.461-1.049.45-1.724.937-1.574,1.162a.913.913,0,0,0,1.012.15c.562-.15.712-.075.6.262a1.279,1.279,0,0,1-1.087.637,3.12,3.12,0,0,0-1.274.487,2.691,2.691,0,0,1-1.461.337c-1.2,0-.974-.562.3-.824a1.114,1.114,0,0,0,.9-.637c.112-.375-.15-.45-1.386-.225a11.421,11.421,0,0,0-2.623.787,10.022,10.022,0,0,1-2.885.749,8.908,8.908,0,0,0-2.211.525,12.724,12.724,0,0,1-2.96.525c-1.986.187-2.66.15-3-.262-.525-.674-4.122-.337-4.2.375-.112.9-.15.937-.712.487-.45-.375-.674-.375-1.124,0-.562.487-1.461.187-1.124-.412.15-.187-.375-.337-1.087-.337H154.8c-.187,0-.3.225-.3.45,0,.337-.6.487-1.836.487-1.162,0-1.911-.187-1.986-.487-.112-.3.262-.45,1.237-.45,2.548,0,.937-.525-1.836-.6a40.472,40.472,0,0,1-10.941-1.8,12.269,12.269,0,0,0-3.035-.6,2.359,2.359,0,0,1-1.611-.525c-.375-.45-1.087-.674-3.747-1.2a1.941,1.941,0,0,1-.9-.487,2.064,2.064,0,0,0-1.274-.412,1.206,1.206,0,0,1-1.087-.562,1.065,1.065,0,0,0-.862-.562c-.9,0-2.361-1.087-2.061-1.574.225-.375,2.4-.187,3.672.3.45.15.562.075.375-.337a2.074,2.074,0,0,0-1.311-.787,11.172,11.172,0,0,1-2.323-.749c-.674-.3-1.761-.749-2.4-1.012-.674-.3-1.237-.637-1.237-.787,0-.187-.262-.3-.6-.3-.375,0-.525.225-.375.562a2.186,2.186,0,0,1-.037,1.2c-.225.562-.3.525-.487-.262-.15-.637-.45-.9-.9-.824-.562.112-.637-.037-.45-.824.187-.824.037-1.049-1.311-1.761-5.471-2.773-12.215-8.393-18.773-15.588-6.745-7.419-9.443-11.016-12.178-16.15-1.649-3.148-1.724-3.223-3.222-6.445a49.513,49.513,0,0,1-3.822-9.742,39.852,39.852,0,0,0-1.386-4.384c-.225-.487-.337-.974-.187-1.087.412-.412,2.735.187,3.485.9a9.145,9.145,0,0,0,3.785,1.948,3.477,3.477,0,0,1,1.461.637,4.133,4.133,0,0,0,2.136.562,10,10,0,0,1,3.26.937c1.124.525,2.4,1.087,2.81,1.274a7.761,7.761,0,0,0,1.5.487,27.345,27.345,0,0,1,2.96,1.162,8.243,8.243,0,0,0,2.623.824,1,1,0,0,1,.9.375c.749.712,1.611.6,1.836-.262.262-.974.937-.974.787.037-.075.562.187.9,1.124,1.274,1.049.487,1.2.45,1.2-.075,0-.562.075-.562.674,0a2.181,2.181,0,0,0,1.237.637,1.623,1.623,0,0,1,.974.412,6.753,6.753,0,0,0,2.248.9c1.2.337,1.8.674,1.761,1.049-.075.674,2.548,1.311,2.773.674.187-.525,1.2-.562,1.2-.037a.422.422,0,0,1-.45.375c-.3,0-.337.112-.075.375.487.487,2.81.525,4.009.037,1.087-.412,1.087-1.162-.037-1.162a6.056,6.056,0,0,1-1.761-.6c-1.049-.487-.974-.525,1.686-.337,2.1.15,2.623.075,2.136-.225-.674-.412-.674-.412,0-1.049a1.439,1.439,0,0,1,1.237-.487c.45.15.45.075.112-.3s-.262-.637.375-1.2c.562-.487.674-.787.375-.9-.862-.375-.487-1.2.637-1.461,1.2-.262,1.911-.974,1.2-1.237a5,5,0,0,1-1.274-.862l-.862-.712.749-.637a1.75,1.75,0,0,0,.637-1.349c-.112-.6-.037-.637.6-.3.787.412,1.948.187,1.948-.375,0-.187-.262-.337-.6-.337-.824,0-1.761-1.049-1.5-1.686a.957.957,0,0,1,.824-.562c.6,0,.6-.075-.037-.749a2.49,2.49,0,0,0-.937-.749,7.775,7.775,0,0,1-1.724-1.311c-1.2-1.124-1.386-1.461-1.012-1.986.45-.712,1.5-.637,2.4.15.9.824,1.724.674.974-.15a2.459,2.459,0,0,1-.637-.937,8.6,8.6,0,0,0-1.986-2.473c-.749-.674-2.585-.862-2.96-.262-.337.525-1.5-.525-1.274-1.162.15-.337-.112-.487-.749-.487a4.061,4.061,0,0,1-1.948-.674,12.738,12.738,0,0,0-4.309-1.948,5.561,5.561,0,0,1-1.836-.712,7.651,7.651,0,0,0-2.7-.9,4.523,4.523,0,0,1-2.735-1.349c-.9-.862-1.461-1.124-2.023-.974-.525.187-1.124-.112-2.023-.9a8.281,8.281,0,0,0-2.885-1.536,15.093,15.093,0,0,1-3-1.162c-1.087-.562-1.574-.674-2.136-.337-1.049.562-1.237.487-.974-.412.187-.525.112-.712-.112-.562a.51.51,0,0,1-.637-.112.6.6,0,0,0-.749-.187c-.3.15-.562-.075-.637-.6-.112-.9-2.773-2.473-6-3.56-1.012-.337-1.8-.862-1.8-1.124s-.824-.787-1.836-1.124a6.648,6.648,0,0,1-2.286-1.124,4.857,4.857,0,0,0-1.8-.974,6.332,6.332,0,0,1-1.761-.749,5.021,5.021,0,0,0-1.461-.487,4.664,4.664,0,0,1-1.686-.674,55.88,55.88,0,0,0-5.471-2.885c-2.66-1.311-5.7-2.885-6.67-3.522a12.631,12.631,0,0,0-3.222-1.386C56.365-388.411,56.215-388.373,55.84-387.324Zm35.522,18.248a.375.375,0,0,1-.375.375.4.4,0,0,1-.375-.375.376.376,0,0,1,.375-.375A.354.354,0,0,1,91.363-369.076Zm1.424,3.71c.112.3-.037.45-.337.337a1.071,1.071,0,0,1-.637-.637c-.112-.3.037-.45.337-.337A1.071,1.071,0,0,1,92.786-365.366Zm13.115,1.874c.375.225.112.375-.824.562-1.386.262-2.1.075-2.1-.562C102.979-363.9,105.227-363.942,105.9-363.492Zm-2.735,1.911a1.311,1.311,0,0,0,.974.375c.375,0,.712.15.712.375,0,.45,0,.45-1.461-.037-.637-.225-1.162-.562-1.162-.749C102.229-362.069,102.866-362.031,103.166-361.581Zm7.494.375c.112.187-.037.375-.375.375s-.487-.187-.375-.375c.112-.225.3-.375.375-.375S110.548-361.432,110.66-361.207Zm-1.948,1.2a1.647,1.647,0,0,1,.075,1.012c-.112.075-.187-.037-.187-.262a.476.476,0,0,0-.525-.45.947.947,0,0,1-.749-.562c-.112-.375.037-.562.487-.562A.986.986,0,0,1,108.712-360.008Zm4.759,0c0,.487-.862.187-1.049-.375-.075-.262.075-.375.45-.225C113.208-360.495,113.47-360.2,113.47-360.008Zm3.485,4.234c.749,1.012.6,1.162-.525.562a1.393,1.393,0,0,1-.712-.937C115.719-356.973,116.206-356.823,116.955-355.773Zm4.571.937c.112.187.037.375-.15.375a.41.41,0,0,1-.412-.375c0-.225.075-.375.15-.375C121.227-355.211,121.414-355.062,121.527-354.837Zm-1.124.749c.112.187.037.375-.15.375a.41.41,0,0,1-.412-.375c0-.225.075-.375.15-.375C120.1-354.462,120.29-354.312,120.4-354.087Zm3.185.45c0,.487-.862.187-1.049-.375-.075-.262.075-.375.45-.225C123.325-354.125,123.587-353.825,123.587-353.638Zm-47.213,5.771c0,.3-.187.45-.375.337a.456.456,0,0,1-.187-.6C76.149-348.654,76.374-348.542,76.374-347.867Zm35.9,10.717a4.192,4.192,0,0,1,1.948.749c0,.412-1.8.375-2.061-.037a3.8,3.8,0,0,0-1.874-.637c-.937-.112-1.686-.412-1.686-.6,0-.225.375-.3.862-.15C109.911-337.713,111.185-337.413,112.271-337.15Zm9.293.937c-.375.375-.712-.187-.375-.674.225-.412.3-.412.45,0A.781.781,0,0,1,121.564-336.214Zm-102.145,3.26c0,.6-.674,1.162-1.012.824-.3-.3.187-1.349.637-1.349C19.231-333.478,19.419-333.254,19.419-332.954Zm2.1,1.986c-.112.15-.637,0-1.162-.262-.712-.375-.824-.6-.487-1.012s.525-.375,1.124.262C21.4-331.53,21.629-331.08,21.517-330.968Zm19.11,4.909c-.824.862-1.087.375-.337-.674.412-.6.674-.712.787-.412A1.35,1.35,0,0,1,40.627-326.059Zm-24.206.075a.41.41,0,0,1-.412.375c-.187,0-.262-.187-.15-.375.112-.225.3-.375.412-.375C16.346-326.359,16.421-326.209,16.421-325.984Zm19.485,2.623a.375.375,0,0,1-.375.375.4.4,0,0,1-.375-.375.375.375,0,0,1,.375-.375A.354.354,0,0,1,35.906-323.361Zm2.248,0c0,.187-.262.375-.562.375s-.562-.187-.562-.375c0-.225.262-.375.562-.375S38.154-323.586,38.154-323.361Zm-4.871,4.347c0,.525-.112.525-.562.15a2.265,2.265,0,0,1-.562-.6c0-.075.262-.15.562-.15A.585.585,0,0,1,33.283-319.015Zm-2.061.9c.112.187.037.375-.15.375a.41.41,0,0,1-.412-.375c0-.225.075-.375.15-.375C30.922-318.49,31.109-318.34,31.222-318.115Zm1.686.937c0,.3-.15.562-.3.562a9.2,9.2,0,0,0-1.761,1.911c-1.724,2.286-5.171,5.958-5.546,5.958-.562,0-.225-.824.712-1.686.974-.9.937-1.686-.075-1.686-.45,0-.45-.15-.15-.749a.793.793,0,0,1,1.536.337c.037.525.075.525.225-.075a.834.834,0,0,1,.674-.637c.3,0,1.012-.787,1.574-1.8,1.087-1.874,1.874-2.66,2.66-2.7A.541.541,0,0,1,32.908-317.179Zm-4.5,2.4c0,.45-.749.937-1.012.674s.225-1.012.674-1.012A.336.336,0,0,1,28.412-314.78Zm-3.934,2.286a.8.8,0,0,1-.6.375.37.37,0,0,1-.337-.375c0-.225.262-.375.6-.375C24.44-312.869,24.59-312.72,24.477-312.495Zm-1.087,5.92c-.674.6-.712.6-.45-.037a5.369,5.369,0,0,0,.225-1.124c0-.3.15-.262.45.037C23.99-307.361,23.915-307.1,23.391-306.574Zm176.562,15.513a1.293,1.293,0,0,1-.9.637c-.6.112-.637.037-.187-.487C199.466-291.623,200.14-291.7,199.953-291.061Zm-77.49,1.049a.37.37,0,0,1-.337.375.8.8,0,0,1-.6-.375c-.112-.225.037-.375.337-.375C122.2-290.387,122.463-290.237,122.463-290.012Zm74.792,1.386c-.375.375-.712-.187-.375-.674.225-.412.3-.412.45,0A.781.781,0,0,1,197.255-288.626Zm25.068,8.356a.59.59,0,0,0,.749.112c.375-.112.562.075.562.6,0,.45-.225.787-.487.787a4.247,4.247,0,0,1-2.136-1.686C221.012-280.794,222.1-280.645,222.323-280.27Zm-48.525,1.5c0,.15-.6.412-1.311.525-1.162.225-1.311.412-1.311,1.386,0,.674-.15,1.049-.375.9-1.237-.749.749-3.672,2.211-3.3C173.461-279.146,173.8-278.921,173.8-278.771Zm13.639.15a4.382,4.382,0,0,1-2.023,1.162,4.017,4.017,0,0,0-2.061,1.237c-.225.674-2.623,1.948-3.672,1.948a1.046,1.046,0,0,1-.862-.45c-.187-.262-.412-.187-.787.262-.45.674-.487.674-.487-.075,0-.974.6-1.461,2.248-1.8a11.932,11.932,0,0,0,2.623-.862,47.985,47.985,0,0,1,4.946-1.911C187.513-279.146,187.55-278.883,187.438-278.621Zm-29.377,1.349a.41.41,0,0,1-.412.375c-.187,0-.262-.187-.15-.375.112-.225.3-.375.412-.375C157.986-277.647,158.061-277.5,158.061-277.272Zm60.7.712c0,.187-.262.412-.562.562-.562.187-.749-.187-.3-.637C218.239-277.01,218.763-276.972,218.763-276.56Zm-52.646.787c.674.749.637.749-1.049.749-1.8,0-2.1-.262-1.311-1.049A1.525,1.525,0,0,1,166.117-275.773Zm-9.855,1.874c-.862,1.5-1.611.862-1.049-.9.375-1.2.45-1.274,1.012-.749C156.824-275.024,156.824-274.911,156.262-273.9Zm13.227-1.724c.674.487.637.525-.487.787-1.461.3-2.173-.037-1.536-.787C167.99-276.3,168.59-276.3,169.489-275.623Zm-23.494.3c-.225.674-1.049.787-1.049.15a.592.592,0,0,1,.6-.6C145.883-275.773,146.07-275.586,145.995-275.324Zm73.33,1.012a.814.814,0,0,1-.637.412c-.225,0-.225-.225.075-.562C219.288-275.1,219.738-274.949,219.325-274.312Zm-18.173,2.473c0,.3-.412.637-.937.787-1.386.337-1.574-.075-.3-.749C201.227-272.513,201.152-272.513,201.152-271.839Zm15.738-.412c0,.112-.15.3-.375.412-.187.112-.375.037-.375-.15a.41.41,0,0,1,.375-.412C216.74-272.4,216.89-272.326,216.89-272.251Zm-19.11.712c0,.45-.45.787-2.323,1.686-.187.075-.3-.112-.3-.45,0-.3.45-.824,1.049-1.124C197.48-272.139,197.78-272.139,197.78-271.539Zm15.963.45c-.112.337-.412.487-.6.375-.3-.187-.262-.412.037-.787C213.7-272.176,214.079-271.914,213.742-271.089Zm-3.86.075a1.978,1.978,0,0,1-.937,0c-.262-.112-.075-.187.45-.187S210.108-271.127,209.883-271.014ZM197.4-269.178c0,.3-.187.45-.375.337a.456.456,0,0,1-.187-.6C197.18-269.965,197.4-269.853,197.4-269.178Zm9.443.6c-.562.562-.974.15-.674-.674.187-.487.337-.562.674-.225S207.185-268.916,206.848-268.579Zm-17.8,1.5c-.112.3-.225.187-.225-.225-.037-.412.075-.637.187-.487A.759.759,0,0,1,189.049-267.08Zm8.731,1.386c0,.45-2.211,1.311-2.548,1.012-.15-.15.075-.525.45-.824C196.506-266.106,197.78-266.218,197.78-265.694Zm7.869,1.162a.375.375,0,0,1-.375.375.4.4,0,0,1-.375-.375.375.375,0,0,1,.375-.375A.354.354,0,0,1,205.649-264.532Zm-4.122.937c-.262.3-.6.45-.787.337-.487-.3-.037-.9.674-.9C201.9-264.157,201.9-264.045,201.527-263.6Zm-4.122,3.56c0,.187-.075.375-.15.375-.112,0-.3-.187-.412-.375-.112-.225-.037-.375.15-.375A.385.385,0,0,1,197.4-260.036Z" transform="translate(-2.177)" fill="#3d444d"/>
    <path id="Path_50" data-name="Path 50" d="M113.328-378.447c-1.461,1.686-1.574,2.1-.3,1.274.525-.337.937-.824.937-1.087a.951.951,0,0,1,.562-.712c.562-.187.787-1.012.3-.937A5.341,5.341,0,0,0,113.328-378.447Z" transform="translate(-66.373 -5.243)" fill="#3d444d"/>
    <path id="Path_51" data-name="Path 51" d="M103.674-362.717a2.741,2.741,0,0,0-.674.9c0,.487,1.049.262,1.5-.3C105.211-362.979,104.461-363.466,103.674-362.717Z" transform="translate(-60.653 -15.764)" fill="#3d444d"/>
    <path id="Path_53" data-name="Path 53" d="M93-346.625a.4.4,0,0,0,.375.375.375.375,0,0,0,.375-.375.354.354,0,0,0-.375-.375A.375.375,0,0,0,93-346.625Z" transform="translate(-54.4 -25.823)" fill="#3d444d"/>
    <path id="Path_54" data-name="Path 54" d="M90-342.625a.4.4,0,0,0,.375.375.375.375,0,0,0,.375-.375.354.354,0,0,0-.375-.375A.375.375,0,0,0,90-342.625Z" transform="translate(-52.525 -28.324)" fill="#3d444d"/>
    <path id="Path_56" data-name="Path 56" d="M88-338.625a.4.4,0,0,0,.375.375.375.375,0,0,0,.375-.375.354.354,0,0,0-.375-.375A.375.375,0,0,0,88-338.625Z" transform="translate(-51.274 -30.825)" fill="#3d444d"/>
    <path id="Path_58" data-name="Path 58" d="M53.494-293.125c-.674.787-.112,1.2.6.487.375-.337.45-.674.225-.824C54.131-293.575,53.756-293.425,53.494-293.125Z" transform="translate(-29.508 -59.276)" fill="#3d444d"/>
    <path id="Path_59" data-name="Path 59" d="M39.49-267.43c-.262.337-.375.674-.262.824.3.262,1.386-.562,1.386-1.049C40.614-268.179,40.014-268.067,39.49-267.43Z" transform="translate(-20.75 -75.229)" fill="#3d444d"/>
    <path id="Path_61" data-name="Path 61" d="M31.375-257.571c-.3.187-.45.45-.337.562.3.3,1.461-.187,1.461-.6S32.087-258.021,31.375-257.571Z" transform="translate(-15.633 -81.528)" fill="#3d444d"/>
    <path id="Path_62" data-name="Path 62" d="M29-251.625a.4.4,0,0,0,.375.375.375.375,0,0,0,.375-.375.354.354,0,0,0-.375-.375A.375.375,0,0,0,29-251.625Z" transform="translate(-14.382 -85.225)" fill="#3d444d"/>
    <path id="Path_66" data-name="Path 66" d="M13.262-232.53a1.387,1.387,0,0,0-.262.862c0,.412.112.45.412.15a.872.872,0,0,0,.262-.862C13.6-232.605,13.412-232.68,13.262-232.53Z" transform="translate(-4.377 -97.351)" fill="#3d444d"/>
    <path id="Path_68" data-name="Path 68" d="M10-226.588c0,.187.187.262.375.15.225-.112.375-.3.375-.412,0-.075-.15-.15-.375-.15A.41.41,0,0,0,10-226.588Z" transform="translate(-2.501 -100.858)" fill="#3d444d"/>
    <path id="Path_69" data-name="Path 69" d="M6-220.625a.41.41,0,0,0,.412.375c.187,0,.262-.187.15-.375-.112-.225-.3-.375-.412-.375C6.075-221,6-220.85,6-220.625Z" transform="translate(0 -104.609)" fill="#3d444d"/>
    <path id="Path_70" data-name="Path 70" d="M10.438-202.625c-.112.187.037.375.375.375s.487-.187.375-.375c-.112-.225-.3-.375-.375-.375S10.551-202.85,10.438-202.625Z" transform="translate(-2.752 -115.865)" fill="#3d444d"/>
    <path id="Path_71" data-name="Path 71" d="M70.173-187.55c.225.674,1.049.787,1.049.15a.592.592,0,0,0-.6-.6C70.285-188,70.1-187.813,70.173-187.55Z" transform="translate(-40.116 -125.244)" fill="#3d444d"/>
    <path id="Path_72" data-name="Path 72" d="M552.351-178.876c-.674.712-.862,1.124-.525,1.087.562,0,2.511-2.211,1.948-2.211A4.145,4.145,0,0,0,552.351-178.876Z" transform="translate(-341.198 -130.246)" fill="#3d444d"/>
    <path id="Path_73" data-name="Path 73" d="M56.278-172.5c-.15.375-.187.787-.037.9.375.375.674-.15.487-.9C56.578-173.134,56.578-173.134,56.278-172.5Z" transform="translate(-31.355 -134.639)" fill="#3d444d"/>
    <path id="Path_74" data-name="Path 74" d="M541-170.254a7.594,7.594,0,0,0-1.424,1.686c.487,0,3.148-2.1,3.148-2.511a.722.722,0,0,1,.487-.6c.337-.15.337-.225-.037-.225A6.169,6.169,0,0,0,541-170.254Z" transform="translate(-333.634 -135.309)" fill="#3d444d"/>
    <path id="Path_75" data-name="Path 75" d="M50.513-166.876c-.262.637-.375,1.237-.225,1.386.112.112.225-.037.225-.412a.922.922,0,0,1,.525-.824c.749-.3,1.087-1.274.45-1.274C51.187-168,50.775-167.475,50.513-166.876Z" transform="translate(-27.651 -137.75)" fill="#3d444d"/>
    <path id="Path_76" data-name="Path 76" d="M540.919-161.858a4.909,4.909,0,0,1-1.237,1.124,16.789,16.789,0,0,0-3.485,3.822c.112.3,6.3-5.4,6.3-5.808C542.493-163.244,541.893-162.945,540.919-161.858Z" transform="translate(-331.528 -140.894)" fill="#3d444d"/>
    <path id="Path_77" data-name="Path 77" d="M557.412-161.625c-.112.187-.037.375.15.375a.41.41,0,0,0,.412-.375c0-.225-.075-.375-.15-.375C557.712-162,557.524-161.85,557.412-161.625Z" transform="translate(-344.76 -141.502)" fill="#3d444d"/>
    <path id="Path_78" data-name="Path 78" d="M595-156.625a.37.37,0,0,0,.337.375.8.8,0,0,0,.6-.375c.112-.225-.037-.375-.337-.375C595.262-157,595-156.85,595-156.625Z" transform="translate(-368.297 -144.628)" fill="#3d444d"/>
    <path id="Path_79" data-name="Path 79" d="M554.862-153.176c-.487.187-.862.6-.862.9,0,.375.187.412.712.112.749-.375,1.349-1.087,1.124-1.274C555.761-153.514,555.311-153.4,554.862-153.176Z" transform="translate(-342.66 -146.841)" fill="#3d444d"/>
    <path id="Path_80" data-name="Path 80" d="M547.4-152.625c-.112.187-.075.375.15.375a.875.875,0,0,0,.6-.375c.112-.225.075-.375-.15-.375A.764.764,0,0,0,547.4-152.625Z" transform="translate(-338.493 -147.129)" fill="#3d444d"/>
    <path id="Path_81" data-name="Path 81" d="M583.478-152.535c-.525.525-.6,1.049-.075,1.049.187,0,.525-.337.749-.749C584.6-153.06,584.19-153.247,583.478-152.535Z" transform="translate(-360.821 -147.144)" fill="#3d444d"/>
    <path id="Path_82" data-name="Path 82" d="M590.512-150.438c-.112.3-.037.562.15.562.225,0,.375-.262.375-.562s-.075-.562-.15-.562S590.662-150.738,590.512-150.438Z" transform="translate(-365.458 -148.38)" fill="#3d444d"/>
    <path id="Path_83" data-name="Path 83" d="M603.029-147.614c-1.2,1.874-.787,1.948.674.112.712-.862.974-1.5.674-1.5C604.116-148.963,603.517-148.363,603.029-147.614Z" transform="translate(-372.879 -149.63)" fill="#3d444d"/>
    <path id="Path_84" data-name="Path 84" d="M550-147.588c0,.187.187.262.375.15.225-.112.375-.3.375-.412,0-.075-.15-.15-.375-.15A.41.41,0,0,0,550-147.588Z" transform="translate(-340.159 -150.256)" fill="#3d444d"/>
    <path id="Path_85" data-name="Path 85" d="M552.9-147.4a.965.965,0,0,1-.674.562c-.6,0-2.286,1.8-1.986,2.1.337.337,3.26-2.061,3.26-2.7C553.5-148.111,553.164-148.111,552.9-147.4Z" transform="translate(-340.287 -150.295)" fill="#3d444d"/>
    <path id="Path_86" data-name="Path 86" d="M580.488-146.4c-.15.375-.037.525.225.45.562-.187.862-1.049.375-1.049C580.9-147,580.6-146.738,580.488-146.4Z" transform="translate(-359.181 -150.881)" fill="#3d444d"/>
    <path id="Path_87" data-name="Path 87" d="M540-145.588c0,.187.187.262.375.15.225-.112.375-.3.375-.412,0-.075-.15-.15-.375-.15A.41.41,0,0,0,540-145.588Z" transform="translate(-333.906 -151.506)" fill="#3d444d"/>
    <path id="Path_88" data-name="Path 88" d="M584.552-144.438c-.375.45-.375.562.112.562a1,1,0,0,0,.787-.562c.112-.3.075-.562-.112-.562A1.544,1.544,0,0,0,584.552-144.438Z" transform="translate(-361.596 -152.132)" fill="#3d444d"/>
    <path id="Path_89" data-name="Path 89" d="M525.531-142.86c-.749.637-1.087,1.087-.749,1.087.562,0,2.623-1.574,2.623-2.023C527.4-144.209,526.805-143.91,525.531-142.86Z" transform="translate(-324.308 -152.772)" fill="#3d444d"/>
    <path id="Path_90" data-name="Path 90" d="M527.82-141.564a19.741,19.741,0,0,1-2.885,2.436,3.275,3.275,0,0,0-1.124.824,14.245,14.245,0,0,1-1.836,1.536c-.525.375-.974.9-.974,1.2,0,.674,5.771-3.71,8.094-6.145,1.461-1.5,1.948-2.286,1.5-2.286C530.518-144,529.281-142.913,527.82-141.564Z" transform="translate(-322.025 -152.757)" fill="#3d444d"/>
    <path id="Path_91" data-name="Path 91" d="M530.023-141.732c-.6.674-1.274,1.237-1.536,1.237s-.487.15-.487.375c0,.674.9.375,2.211-.712.712-.562,1.2-1.274,1.087-1.574C531.148-142.781,530.81-142.593,530.023-141.732Z" transform="translate(-326.402 -153.639)" fill="#3d444d"/>
    <path id="Path_92" data-name="Path 92" d="M567.678-140.031a15.529,15.529,0,0,1-1.948,2.361c-.824.525-1.574,1.611-1.087,1.611.787,0,5.283-4.909,5.283-5.733C569.926-142.542,569.027-141.83,567.678-140.031Z" transform="translate(-349.218 -153.953)" fill="#3d444d"/>
    <path id="Path_93" data-name="Path 93" d="M544.829-137.994c-.487.412-.749.862-.6,1.012s.637-.075,1.087-.525C546.366-138.556,545.991-138.93,544.829-137.994Z" transform="translate(-336.524 -156.178)" fill="#3d444d"/>
    <path id="Path_94" data-name="Path 94" d="M596.937-138.251c-.112.412-.412.749-.6.749a.346.346,0,0,0-.337.375c0,.712.562.375,1.2-.749.337-.637.487-1.124.3-1.124S597.049-138.663,596.937-138.251Z" transform="translate(-368.922 -155.883)" fill="#3d444d"/>
    <path id="Path_95" data-name="Path 95" d="M588.281-134.732c-.45.45-.262.824.3.637.3-.15.562-.375.562-.562C589.143-135.07,588.618-135.107,588.281-134.732Z" transform="translate(-363.939 -158.39)" fill="#3d444d"/>
    <path id="Path_96" data-name="Path 96" d="M540.452-132.348c-.3.187-.412.45-.262.6s.487.075.712-.15C541.464-132.46,541.164-132.8,540.452-132.348Z" transform="translate(-333.983 -159.913)" fill="#3d444d"/>
    <path id="Path_97" data-name="Path 97" d="M607.264-132.736c-.45.412-.3.862.3.862a.576.576,0,0,0,.562-.562C608.126-133.036,607.676-133.186,607.264-132.736Z" transform="translate(-375.802 -159.637)" fill="#3d444d"/>
    <path id="Path_98" data-name="Path 98" d="M573.193-131.362a.791.791,0,0,0-.674.674c0,.3-.337.525-.712.525a.861.861,0,0,0-.862.525c-.112.637-4.272,5.321-7.682,8.731-2.023,1.986-2.923,3.485-2.136,3.485.674,0,8.393-8.543,8.393-9.293,0-.262.337-.45.749-.45s.749-.262.749-.562.15-.562.3-.562a11.457,11.457,0,0,0,2.66-3.148A1.587,1.587,0,0,0,573.193-131.362Z" transform="translate(-346.94 -160.598)" fill="#3d444d"/>
    <path id="Path_99" data-name="Path 99" d="M585.4-130.625c-.112.187-.075.375.15.375a.875.875,0,0,0,.6-.375c.112-.225.075-.375-.15-.375A.764.764,0,0,0,585.4-130.625Z" transform="translate(-362.254 -160.886)" fill="#3d444d"/>
    <path id="Path_100" data-name="Path 100" d="M616.606-130.213c-.487.9-.15,1.536.375.712.375-.6.487-1.5.187-1.5A1.993,1.993,0,0,0,616.606-130.213Z" transform="translate(-381.66 -160.886)" fill="#3d444d"/>
    <path id="Path_101" data-name="Path 101" d="M531.776-128.1c-.937.937-1.237,1.5-.9,1.5.712,0,3.148-2.473,2.66-2.735C533.35-129.488,532.563-128.889,531.776-128.1Z" transform="translate(-328.117 -161.91)" fill="#3d444d"/>
    <path id="Path_102" data-name="Path 102" d="M580.088-129.291c0,.412.112.525.225.225a.759.759,0,0,0-.037-.712C580.163-129.928,580.05-129.7,580.088-129.291Z" transform="translate(-358.968 -161.621)" fill="#3d444d"/>
    <path id="Path_103" data-name="Path 103" d="M580.667-126.326c-.712.787-.824,1.2-.262,1.2.225,0,.525-.3.637-.674a2.409,2.409,0,0,1,.637-.9c.3-.225.3-.3,0-.3A1.958,1.958,0,0,0,580.667-126.326Z" transform="translate(-358.947 -163.387)" fill="#3d444d"/>
    <path id="Path_104" data-name="Path 104" d="M548.305-125.037c-1.162,1.349-1.237,1.686-.375,1.2.824-.412,1.424-1.386,1.087-1.686C548.943-125.6,548.605-125.374,548.305-125.037Z" transform="translate(-338.502 -164.301)" fill="#3d444d"/>
    <path id="Path_105" data-name="Path 105" d="M560.512-125.438c-.112.3-.037.562.15.562.225,0,.375-.262.375-.562s-.075-.562-.15-.562S560.662-125.738,560.512-125.438Z" transform="translate(-346.699 -164.012)" fill="#3d444d"/>
    <path id="Path_106" data-name="Path 106" d="M570.438-125.625c-.112.187.037.375.337.375.337,0,.6-.187.6-.375a.346.346,0,0,0-.337-.375A.712.712,0,0,0,570.438-125.625Z" transform="translate(-352.915 -164.012)" fill="#3d444d"/>
    <path id="Path_107" data-name="Path 107" d="M594.412-124.625c-.112.187-.037.375.15.375a.41.41,0,0,0,.412-.375c0-.225-.075-.375-.15-.375C594.712-125,594.524-124.85,594.412-124.625Z" transform="translate(-367.896 -164.637)" fill="#3d444d"/>
    <path id="Path_108" data-name="Path 108" d="M611.817-123.02c-.262.412-.3.749-.112.749.337,0,.9-1.124.674-1.349C612.342-123.694,612.079-123.394,611.817-123.02Z" transform="translate(-378.669 -165.494)" fill="#3d444d"/>
    <path id="Path_109" data-name="Path 109" d="M584.954-120.052A72.553,72.553,0,0,1,575.961-109a16.6,16.6,0,0,0-2.773,3.3c.45.45,6.82-5.7,8.543-8.244.3-.45,1.274-1.724,2.173-2.81a8.73,8.73,0,0,0,1.574-2.4,2.222,2.222,0,0,1,.749-1.162c.749-.674,1.012-1.686.412-1.686A8.416,8.416,0,0,0,584.954-120.052Z" transform="translate(-354.654 -166.513)" fill="#3d444d"/>
    <path id="Path_110" data-name="Path 110" d="M526-120.625a.37.37,0,0,0,.337.375.8.8,0,0,0,.6-.375c.112-.225-.037-.375-.337-.375C526.262-121,526-120.85,526-120.625Z" transform="translate(-325.152 -167.139)" fill="#3d444d"/>
    <path id="Path_111" data-name="Path 111" d="M554.45-120.535a1.557,1.557,0,0,0-.45.937c0,.412.225.337.937-.15.487-.375.937-.787.937-.974C555.874-121.134,554.937-121.022,554.45-120.535Z" transform="translate(-342.66 -167.154)" fill="#3d444d"/>
    <path id="Path_112" data-name="Path 112" d="M329.266-119.573c-.15.225-.187.487-.075.6.262.262,1.012-.225,1.012-.674S329.566-120.1,329.266-119.573Z" transform="translate(-202.048 -167.779)" fill="#3d444d"/>
    <path id="Path_113" data-name="Path 113" d="M517.517-119.687a.759.759,0,0,0,.712-.037c.15-.112-.075-.225-.487-.187C517.33-119.912,517.218-119.8,517.517-119.687Z" transform="translate(-319.742 -167.814)" fill="#3d444d"/>
    <path id="Path_114" data-name="Path 114" d="M529.143-118.089c-1.087,1.012-1.874,1.986-1.761,2.1.225.225.937-.3,3.148-2.286,1.162-1.087,1.5-1.724.9-1.724A14.381,14.381,0,0,0,529.143-118.089Z" transform="translate(-326.009 -167.764)" fill="#3d444d"/>
    <path id="Path_115" data-name="Path 115" d="M563.457-119.535c-.525.525-.6,1.424-.15,1.424a3.291,3.291,0,0,0,1.574-1.611C564.881-120.134,563.944-120.022,563.457-119.535Z" transform="translate(-348.295 -167.78)" fill="#3d444d"/>
    <path id="Path_116" data-name="Path 116" d="M520.106-117.95c-.6.487-.974,1.049-.787,1.2.15.15.45,0,.637-.375a1.4,1.4,0,0,1,.9-.637.576.576,0,0,0,.562-.562C521.417-119.037,521.455-119.037,520.106-117.95Z" transform="translate(-320.944 -168.502)" fill="#3d444d"/>
    <path id="Path_117" data-name="Path 117" d="M529.412-117.625c-.112.187-.037.375.15.375a.41.41,0,0,0,.412-.375c0-.225-.075-.375-.15-.375C529.712-118,529.524-117.85,529.412-117.625Z" transform="translate(-327.252 -169.015)" fill="#3d444d"/>
    <path id="Path_118" data-name="Path 118" d="M336-115.438c0,.3.15.562.337.562s.412-.262.562-.562c.112-.337,0-.562-.337-.562A.576.576,0,0,0,336-115.438Z" transform="translate(-206.346 -170.265)" fill="#3d444d"/>
    <path id="Path_119" data-name="Path 119" d="M341.264-114.736c-.45.412-.3.862.3.862a.576.576,0,0,0,.562-.562C342.126-115.036,341.676-115.186,341.264-114.736Z" transform="translate(-209.474 -170.892)" fill="#3d444d"/>
    <path id="Path_120" data-name="Path 120" d="M525-114.625a.4.4,0,0,0,.375.375.375.375,0,0,0,.375-.375.354.354,0,0,0-.375-.375A.376.376,0,0,0,525-114.625Z" transform="translate(-324.527 -170.89)" fill="#3d444d"/>
    <path id="Path_121" data-name="Path 121" d="M535.447-112.337a.706.706,0,0,0-.375.712c.112.3.375.3.862-.075C536.721-112.262,536.271-112.862,535.447-112.337Z" transform="translate(-330.814 -172.429)" fill="#3d444d"/>
    <path id="Path_122" data-name="Path 122" d="M559.438-112.625a.456.456,0,0,0,.6.187c.525-.337.412-.562-.262-.562C559.475-113,559.325-112.813,559.438-112.625Z" transform="translate(-346.037 -172.141)" fill="#3d444d"/>
    <path id="Path_123" data-name="Path 123" d="M506-110.582a8.983,8.983,0,0,1-1.948,1.536c-.6.3-1.049.712-1.049.937,0,.412,2.323-.9,3.522-1.948.375-.375.6-.862.525-1.087S506.522-111.144,506-110.582Z" transform="translate(-310.77 -173.248)" fill="#3d444d"/>
    <path id="Path_124" data-name="Path 124" d="M360.445-109.378c-.112.187.075.412.375.562a.708.708,0,0,0,.749-.112c.112-.187-.075-.412-.375-.562A.709.709,0,0,0,360.445-109.378Z" transform="translate(-221.611 -174.302)" fill="#3d444d"/>
    <path id="Path_125" data-name="Path 125" d="M553.637-109.253c-.262.45-.412.862-.3.974.262.262.937-.225,1.349-1.049C555.248-110.34,554.274-110.3,553.637-109.253Z" transform="translate(-342.222 -173.977)" fill="#3d444d"/>
    <path id="Path_126" data-name="Path 126" d="M561.232-109.588c-.412.637.037.787.562.15.3-.337.3-.562.075-.562A.814.814,0,0,0,561.232-109.588Z" transform="translate(-347.081 -174.017)" fill="#3d444d"/>
    <path id="Path_127" data-name="Path 127" d="M368.412-108.625c.112.187.3.375.412.375.075,0,.15-.187.15-.375a.385.385,0,0,0-.412-.375C368.374-109,368.3-108.85,368.412-108.625Z" transform="translate(-226.58 -174.642)" fill="#3d444d"/>
    <path id="Path_128" data-name="Path 128" d="M521.911-107.24c-.525.412-1.574,1.162-2.361,1.686-.824.525-1.386,1.049-1.274,1.124.187.225,5.508-3.073,5.508-3.41C523.784-108.289,522.773-107.952,521.911-107.24Z" transform="translate(-320.313 -175.24)" fill="#3d444d"/>
    <path id="Path_129" data-name="Path 129" d="M455.412-106.625c-.112.187-.037.375.15.375a.41.41,0,0,0,.412-.375c0-.225-.075-.375-.15-.375C455.712-107,455.524-106.85,455.412-106.625Z" transform="translate(-280.981 -175.893)" fill="#3d444d"/>
    <path id="Path_130" data-name="Path 130" d="M556.438-105.625c-.112.187.037.375.337.375a1.055,1.055,0,0,0,.787-.375c.112-.225-.037-.375-.337-.375A.943.943,0,0,0,556.438-105.625Z" transform="translate(-344.161 -176.518)" fill="#3d444d"/>
    <path id="Path_131" data-name="Path 131" d="M550-104.438c0,.3.187.562.375.562.225,0,.375-.262.375-.562s-.15-.562-.375-.562C550.187-105,550-104.738,550-104.438Z" transform="translate(-340.159 -177.143)" fill="#3d444d"/>
    <path id="Path_132" data-name="Path 132" d="M437.438-102.625c-.112.187.037.375.337.375a1.055,1.055,0,0,0,.787-.375c.112-.225-.037-.375-.337-.375A.943.943,0,0,0,437.438-102.625Z" transform="translate(-269.751 -178.394)" fill="#3d444d"/>
    <path id="Path_133" data-name="Path 133" d="M428.618-101.64c-.787.487.187.9,1.087.412a2.067,2.067,0,0,0,.749-.562C430.454-102.09,429.18-101.977,428.618-101.64Z" transform="translate(-264.079 -179.042)" fill="#3d444d"/>
    <path id="Path_134" data-name="Path 134" d="M526.412-80.625c-.112.187-.037.375.15.375a.41.41,0,0,0,.412-.375c0-.225-.075-.375-.15-.375C526.712-81,526.524-80.85,526.412-80.625Z" transform="translate(-325.376 -192.15)" fill="#3d444d"/>
    <path id="Path_135" data-name="Path 135" d="M552.493-76.106c-.525.45-1.686,1.424-2.623,2.136-.937.674-2.4,1.874-3.223,2.585a32.22,32.22,0,0,1-2.585,2.023c-1.574,1.124-.824,1.162.9.112,2.136-1.349,9.03-7.007,9.03-7.382C553.992-77.193,553.467-77.006,552.493-76.106Z" transform="translate(-335.907 -194.683)" fill="#3d444d"/>
    <path id="Path_137" data-name="Path 137" d="M520.313-45.3c-1.349.712-1.574,1.2-.562,1.2.637,0,3.073-1.311,3.073-1.686S521.474-45.9,520.313-45.3Z" transform="translate(-320.851 -214.058)" fill="#3d444d"/>
    <path id="Path_138" data-name="Path 138" d="M509.229-38.588c-.45.674.112.824.749.187.525-.525.525-.6.037-.6A.971.971,0,0,0,509.229-38.588Z" transform="translate(-314.564 -218.413)" fill="#3d444d"/>
    <path id="Path_139" data-name="Path 139" d="M458.238-22.551c-.375.562-.075.712.862.45.45-.112.712-.337.6-.525A.939.939,0,0,0,458.238-22.551Z" transform="translate(-282.683 -228.454)" fill="#3d444d"/>
    <path id="Path_140" data-name="Path 140" d="M423.438-16.625a.456.456,0,0,0,.6.187c.525-.337.412-.562-.262-.562C423.475-17,423.325-16.813,423.438-16.625Z" transform="translate(-260.997 -232.169)" fill="#3d444d"/>
  </g>
</svg>
