<svg id="calendar-1" xmlns="http://www.w3.org/2000/svg" width="24" height="24" viewBox="0 0 24 24">
  <g id="Frames-24px">
    <rect id="Rectangle_26" data-name="Rectangle 26" width="24" height="24" fill="none"/>
  </g>
  <g id="Outline" transform="translate(1 1)">
    <g id="Group_17" data-name="Group 17">
      <path id="Path_8" data-name="Path 8" d="M21,3H18V1H16V7h2V5h3V20H3V5H5V3H3A2,2,0,0,0,1,5V20a2,2,0,0,0,2,2H21a2,2,0,0,0,2-2V5A2,2,0,0,0,21,3Z" transform="translate(-1 -1)" fill="#fafcff"/>
      <path id="Path_9" data-name="Path 9" d="M8,5h7V3H8V1H6V7H8Z" transform="translate(-1 -1)" fill="#fafcff"/>
      <rect id="Rectangle_27" data-name="Rectangle 27" width="4" height="4" transform="translate(4 8)" fill="#fafcff"/>
      <rect id="Rectangle_28" data-name="Rectangle 28" width="4" height="4" transform="translate(9 8)" fill="#fafcff"/>
      <rect id="Rectangle_29" data-name="Rectangle 29" width="4" height="4" transform="translate(14 8)" fill="#fafcff"/>
      <rect id="Rectangle_30" data-name="Rectangle 30" width="4" height="4" transform="translate(4 13)" fill="#fafcff"/>
      <rect id="Rectangle_31" data-name="Rectangle 31" width="4" height="4" transform="translate(9 13)" fill="#fafcff"/>
    </g>
  </g>
</svg>
