<svg xmlns="http://www.w3.org/2000/svg" viewBox="0 0 101.54119 101.54119"><defs><style>.cls-2{fill:#fff;}</style></defs><g id="Layer_2" data-name="Layer 2"><g id="Layer_1-2" data-name="Layer 1"><rect class="fill-current text-gray-500" width="101.54119" height="101.54119" rx="3.38448"/><path id="Subtraction_4" data-name="Subtraction 4" class="cls-2" d="M13.99371,69.48986a8.068,8.068,0,0,1-6.287-2.391c-1.402-1.553-2.113-3.813-2.113-6.716v-18.721c0-2.907.711-5.163,2.112-6.716a8.068,8.068,0,0,1,6.288-2.391,8.068,8.068,0,0,1,6.286,2.391c1.401,1.553,2.114,3.809,2.114,6.716v3.542h-5.365v-3.849a4.022,4.022,0,0,0-.784-2.719,2.739,2.739,0,0,0-2.151-.819,2.738,2.738,0,0,0-2.15.822,4.024,4.024,0,0,0-.784,2.716v19.432a4.024,4.024,0,0,0,.784,2.719,2.738,2.738,0,0,0,2.15.822c2,0,2.935-1.125,2.935-3.542v-5.159h5.365v4.757c0,2.9-.711,5.163-2.112,6.716A8.068,8.068,0,0,1,13.99371,69.48986Zm55.857-.4h-8.9v-36.029h8.9c2.792,0,4.92.77,6.325,2.29,1.376,1.489,2.074,3.715,2.074,6.616v18.213c0,2.9-.7,5.126-2.074,6.615-1.406,1.52-3.534,2.29-6.326,2.29Zm-3.278-30.782v25.327h3.19c1.931,0,2.792-1.076,2.792-3.49v-18.347a4.068,4.068,0,0,0-.723-2.68,2.535,2.535,0,0,0-2.069-.81Zm20.074,30.675h-5.666v-35.922h14.976v5.06h-9.31v10.828h7.285v5.161h-7.285v14.873Zm-28.435,0h-14.975v-35.922h5.666v30.864h9.31v5.058Zm-17.708,0h-15.482v-35.922h15.482v5.06h-9.815v10.018h7.792v5.161h-7.792v10.523h9.815Z"/></g></g></svg>
