<svg id="chat-bubble-square-smiley" xmlns="http://www.w3.org/2000/svg" width="24" height="24" viewBox="0 0 24 24">
  <g id="Frames-24px">
    <rect id="Rectangle_32" data-name="Rectangle 32" width="24" height="24" fill="none"/>
  </g>
  <g id="Outline" transform="translate(2 2)">
    <g id="Group_22" data-name="Group 22">
      <g id="Group_18" data-name="Group 18">
        <path id="Path_10" data-name="Path 10" d="M6,22V18H4a2,2,0,0,1-2-2V4A2,2,0,0,1,4,2H20a2,2,0,0,1,2,2V16a2,2,0,0,1-2,2H11.333ZM4,4V16H8v2l2.667-2H20V4Z" transform="translate(-2 -2)" fill="#fafcff"/>
      </g>
      <g id="Group_19" data-name="Group 19" transform="translate(5.422 9)">
        <path id="Path_11" data-name="Path 11" d="M7.422,11a4.993,4.993,0,0,0,9.156,0Z" transform="translate(-7.422 -11)" fill="#fafcff"/>
      </g>
      <g id="Group_20" data-name="Group 20" transform="translate(5.75 4)">
        <circle id="Ellipse_2" data-name="Ellipse 2" cx="1.25" cy="1.25" r="1.25" fill="#fafcff"/>
      </g>
      <g id="Group_21" data-name="Group 21" transform="translate(11.75 4)">
        <circle id="Ellipse_3" data-name="Ellipse 3" cx="1.25" cy="1.25" r="1.25" fill="#fafcff"/>
      </g>
    </g>
  </g>
</svg>
