<svg id="devices" xmlns="http://www.w3.org/2000/svg" width="24" height="24" viewBox="0 0 24 24">
  <g id="Frames-24px">
    <rect id="Rectangle_33" data-name="Rectangle 33" width="24" height="24" fill="none"/>
  </g>
  <g id="Outline" transform="translate(2 2)">
    <g id="Group_23" data-name="Group 23">
      <path id="Path_12" data-name="Path 12" d="M12,20H4V19h8V17H4V7H16V8h2V4a2,2,0,0,0-2-2H4A2,2,0,0,0,2,4V20a2,2,0,0,0,2,2h8ZM4,4H16V5H4Z" transform="translate(-2 -2)" fill="#fafcff"/>
      <path id="Path_13" data-name="Path 13" d="M20,10H16a2,2,0,0,0-2,2v8a2,2,0,0,0,2,2h4a2,2,0,0,0,2-2V12A2,2,0,0,0,20,10Zm0,2v5H16V12Zm-4,8V19h4v1Z" transform="translate(-2 -2)" fill="#fafcff"/>
    </g>
  </g>
</svg>
