<svg xmlns="http://www.w3.org/2000/svg" width="24" height="24" viewBox="0 0 24 24">
  <path id="github-square-brands" d="M21.429,32H2.571A2.572,2.572,0,0,0,0,34.571V53.429A2.572,2.572,0,0,0,2.571,56H21.429A2.572,2.572,0,0,0,24,53.429V34.571A2.572,2.572,0,0,0,21.429,32ZM14.855,52.555c-.45.08-.616-.2-.616-.429,0-.289.011-1.768.011-2.963a2.087,2.087,0,0,0-.605-1.645c1.982-.22,4.071-.493,4.071-3.916a2.75,2.75,0,0,0-.916-2.089,3.35,3.35,0,0,0-.091-2.411c-.745-.23-2.448.959-2.448.959a8.427,8.427,0,0,0-4.457,0S8.1,38.873,7.355,39.1a3.325,3.325,0,0,0-.091,2.411A2.691,2.691,0,0,0,6.429,43.6c0,3.407,2,3.7,3.98,3.916a1.942,1.942,0,0,0-.568,1.195,1.88,1.88,0,0,1-2.588-.745,1.866,1.866,0,0,0-1.366-.916c-.868-.011-.059.546-.059.546.579.268.986,1.3.986,1.3.52,1.591,3.005,1.055,3.005,1.055,0,.745.011,1.955.011,2.175s-.161.509-.616.429A8.888,8.888,0,0,1,3.2,44.075a8.5,8.5,0,0,1,8.679-8.652,8.691,8.691,0,0,1,8.9,8.652A8.806,8.806,0,0,1,14.855,52.555ZM9.6,49.282c-.1.021-.2-.021-.209-.091s.059-.15.161-.171.2.032.209.1-.054.139-.161.161Zm-.509-.048c0,.07-.08.129-.187.129s-.2-.048-.2-.129.08-.129.188-.129S9.091,49.154,9.091,49.234Zm-.734-.059c-.021.07-.129.1-.22.07s-.171-.1-.15-.171.129-.1.22-.08c.107.032.177.113.15.182ZM7.7,48.886c-.048.059-.15.048-.23-.032s-.1-.171-.048-.22.15-.048.23.032S7.746,48.843,7.7,48.886ZM7.211,48.4c-.048.032-.139,0-.2-.08s-.059-.171,0-.209.15-.011.2.07A.157.157,0,0,1,7.211,48.4Zm-.348-.52c-.048.048-.129.021-.187-.032-.059-.07-.07-.15-.021-.188s.129-.021.188.032C6.9,47.761,6.911,47.841,6.862,47.879Zm-.359-.4a.1.1,0,0,1-.15.021c-.07-.032-.1-.091-.08-.139a.126.126,0,0,1,.15-.021C6.493,47.38,6.525,47.439,6.5,47.482Z" transform="translate(0 -32)" fill="#ccc2b8"/>
</svg>
