<svg version="1.1" id="Layer_1" xmlns="http://www.w3.org/2000/svg" xmlns:xlink="http://www.w3.org/1999/xlink" x="0px" y="0px"
	 viewBox="0 0 137.42 36.91" style="enable-background:new 0 0 137.42 36.91;" xml:space="preserve">
<path class="fill-current text-gray-500" d="M3.69,34.47V2.91h7.49v4.41c2.64-3.25,6.44-5.07,10.91-5.07c7.27,0,11.51,4.85,11.51,12.39v19.83h-7.55v-18.4
	c0-4.52-2.26-7.11-6.22-7.11c-5.23,0-8.65,4.68-8.65,11.79v13.72H3.69z M52.31,35.13c-9.36,0-15.86-6.61-15.86-16.47
	c0-9.69,6.39-16.41,15.75-16.41c7.05,0,12.17,3.75,14.38,9.97l-7,2.86c-0.83-4.02-3.36-6.17-7.22-6.17c-5.01,0-8.26,3.8-8.26,9.75
	s3.25,9.8,8.32,9.8c3.8,0,6.33-2.15,7.16-6.17l6.94,2.86C64.15,31.66,59.19,35.13,52.31,35.13z M84.2,35.13
	c-9.47,0-15.81-6.61-15.81-16.41c0-9.86,6.33-16.47,15.81-16.47c9.47,0,15.86,6.61,15.86,16.47C100.06,28.52,93.67,35.13,84.2,35.13
	z M84.2,28.47c4.79,0,8.15-3.97,8.15-9.75c0-5.84-3.36-9.8-8.15-9.8c-4.79,0-8.15,3.97-8.15,9.8C76.05,24.5,79.41,28.47,84.2,28.47z
	"/>
<path class="fill-current text-gray-500" d="M122.65,28.8c-2.86,0-4.68-1.27-4.68-3.41c0-2.42,2.09-3.64,7.88-4.57l5.4-0.88v0.39
	C131.25,26.1,126.9,28.8,122.65,28.8z M110.37,25.71c0-5.78,4.3-9.31,13.16-10.69l7.71-1.21v-0.5c0-2.86-2.2-4.41-5.95-4.41
	c-4.13,0-6.83,1.93-7.71,5.56l-6.11-4.41c2.14-4.41,5.88-6.94,11.07-7.62c-1.07-0.22-2.18-0.34-3.32-0.34
	c-9.07,0-16.43,7.35-16.43,16.43c0,8.92,7.11,16.17,15.97,16.42C113.68,34.15,110.37,30.71,110.37,25.71z"/>
</svg>
