<svg id="paint-brush-1" xmlns="http://www.w3.org/2000/svg" width="24" height="24" viewBox="0 0 24 24">
  <g id="Frames-24px">
    <rect id="Rectangle_25" data-name="Rectangle 25" width="24" height="24" fill="none"/>
  </g>
  <g id="Solid" transform="translate(0.477 2.099)">
    <path id="Path_7" data-name="Path 7" d="M22,5.07a2.979,2.979,0,0,0-.878-2.121,3.071,3.071,0,0,0-4.243,0L6.67,13.158a3.938,3.938,0,0,0-2.519,1.105,4.061,4.061,0,0,0-1.309,3.564,2.575,2.575,0,0,1-.923,2.411L.477,21.68A22.806,22.806,0,0,0,3.721,22h0c1.5,0,4.276-.271,6.085-2.08a3.956,3.956,0,0,0,1.146-2.561L21.121,7.191A2.976,2.976,0,0,0,22,5.07ZM8.393,18.506A6.163,6.163,0,0,1,4.528,19.97a4.651,4.651,0,0,0,.312-2.241,2.274,2.274,0,0,1,2.139-2.637,2,2,0,0,1,1.414,3.414ZM19.707,5.777,10.414,15.07a4,4,0,0,0-.607-.807,3.724,3.724,0,0,0-.815-.6l9.3-9.3a1.025,1.025,0,0,1,1.414,0,1,1,0,0,1,0,1.414Z" transform="translate(-0.477 -2.099)" fill="#fafcff"/>
  </g>
</svg>
