<svg xmlns="http://www.w3.org/2000/svg" width="26.807" height="23.456" viewBox="0 0 26.807 23.456">
  <path id="quote-left-solid" d="M24.294,43.728H20.106V40.377a3.354,3.354,0,0,1,3.351-3.351h.419a1.254,1.254,0,0,0,1.257-1.257V33.257A1.254,1.254,0,0,0,23.875,32h-.419a8.375,8.375,0,0,0-8.377,8.377V52.943a2.514,2.514,0,0,0,2.513,2.513h6.7a2.514,2.514,0,0,0,2.513-2.513v-6.7A2.514,2.514,0,0,0,24.294,43.728Zm-15.079,0H5.026V40.377a3.354,3.354,0,0,1,3.351-3.351H8.8a1.254,1.254,0,0,0,1.257-1.257V33.257A1.254,1.254,0,0,0,8.8,32H8.377A8.375,8.375,0,0,0,0,40.377V52.943a2.514,2.514,0,0,0,2.513,2.513h6.7a2.514,2.514,0,0,0,2.513-2.513v-6.7A2.514,2.514,0,0,0,9.215,43.728Z" transform="translate(0 -32)" fill="#e6f0ff"/>
</svg>
