<svg xmlns="http://www.w3.org/2000/svg" width="196.115" height="16.276" viewBox="0 0 196.115 16.276">
  <g id="Screen-Shot-2020-01-18-at-5.45.59-PM" transform="translate(-13 41.779)">
    <path id="Path_142" data-name="Path 142" d="M19.415-41.3a5.139,5.139,0,0,0-2.077,1.466,2.507,2.507,0,0,1-1.65.978c-.855,0-2.688,1.65-2.688,2.383a4.5,4.5,0,0,0,.794,1.527c.672.916.916.977,2.932.122A10.611,10.611,0,0,0,19.72-36.66c1.466-1.833,4.7-1.161,9.042,1.833,5.682,3.971,6.109,4.093,9.9,2.322,4.215-1.955,5.315-1.833,8.92.672,1.65,1.161,3.543,2.138,4.277,2.138,1.405,0,5.193-2.566,7.515-5.132a5.741,5.741,0,0,1,2.2-1.588c.428,0,2.26,1.65,4.093,3.666,2.871,3.177,3.666,3.666,5.56,3.666a4.121,4.121,0,0,0,2.566-.611c.183-.367,1.344-.611,2.566-.611,1.65,0,2.871.611,5.071,2.444,3.91,3.3,5.437,3.177,10.325-.611,2.138-1.711,4.338-3.055,4.887-3.055.611,0,2.5,1.222,4.277,2.749s3.6,2.749,4.154,2.749c1.161,0,5.071-1.833,5.071-2.383a7.562,7.562,0,0,1,2.444-1.833l2.444-1.344,3.3,1.833c4.215,2.444,5.865,2.383,9.9-.305,3.666-2.444,5.01-2.383,7.576.367a10.971,10.971,0,0,0,3.727,2.444c2.627.977,4.338.183,8.614-3.91,2.566-2.444,4.765-4.032,5.621-4.032a23.818,23.818,0,0,1,3.421,2.749c1.711,1.527,3.727,2.749,4.46,2.749a11.241,11.241,0,0,0,4.032-1.527c3.421-1.955,4.338-1.894,6.476.305,2.5,2.627,4.582,2.871,8.37.977,3.971-1.955,5.01-1.955,7.331-.061,2.81,2.383,5.254,2.077,9.347-1.283,2.994-2.5,3.666-2.749,5.5-2.444a7.819,7.819,0,0,0,4.215-.489c3.727-1.527,2.871-2.322-3.666-3.177-3.055-.367-3.3-.305-6.537,2.138-4.154,3.177-6.476,3.36-10.08.977l-2.566-1.65-3.055,1.588c-3.666,1.955-6.293,2.016-8.125.305-3.3-3.177-3.788-3.3-7.148-1.527-4.277,2.26-5.987,2.077-8.8-.855-3.177-3.36-4.7-3.238-8.92.672a47.86,47.86,0,0,1-4.765,4.032c-2.016,1.405-4.765.611-7.82-2.26-1.466-1.344-3.055-2.444-3.6-2.444a15.216,15.216,0,0,0-4.277,2.2c-2.871,1.894-3.727,2.2-5.743,1.894a11.271,11.271,0,0,1-4.277-1.588c-2.566-1.833-4.215-1.588-7.7,1.161-1.65,1.344-3.666,2.444-4.338,2.444-.733,0-2.688-1.1-4.277-2.444C97-36.232,94.56-35.988,90.1-31.65a19.709,19.709,0,0,1-2.627,1.711c-1.711.855-1.955.855-3.849-.367a12.3,12.3,0,0,1-2.871-2.26,8.545,8.545,0,0,0-2.688-1.772c-1.527-.611-2.26-.55-4.765.367-2.749,1.039-3.116,1.1-4.46.183-.794-.489-1.466-1.1-1.466-1.344a12.41,12.41,0,0,0-2.2-2.688c-3.055-3.177-4.7-2.994-8.859.794-1.955,1.833-3.849,3.055-4.7,3.055A11.124,11.124,0,0,1,47.4-35.927c-3.3-2.383-5.987-2.566-9.9-.611a19.983,19.983,0,0,1-3.238,1.344,18.508,18.508,0,0,1-3.727-2.444C25.463-41.425,22.286-42.525,19.415-41.3Z" fill="#3d444d"/>
  </g>
</svg>
