<svg version="1.1" id="Layer_1" xmlns="http://www.w3.org/2000/svg" xmlns:xlink="http://www.w3.org/1999/xlink"
	 viewBox="75 75 350 350">
<g id="XMLID_1_">
	<g id="XMLID_2_">
		<g id="XMLID_3_">
			<g id="XMLID_4_">
				<path id="XMLID_12_" class="fill-current text-gray-700" d="M75,75h350v350H75V75z"/>
				<path id="XMLID_11_" class="fill-current text-white" d="M155,281.5c0-4-0.5-7.5-2-10.5c-2-2.5-5.5-3-11-3h-12.5v15h4c6,0,7-1.5,7-9h5v25h-5
					c0-8.5-1-10.5-7-10.5h-4v13c0,4.5,0.5,4.5,5,4.5h5.5v6h-30.5v-6h3c4,0,5.5-0.5,5.5-4.5c0-29.5,0,0,0-29.5c0-4-1.5-4.5-5.5-4.5
					h-3V262c51,0,0,0,51,0v19.5L155,281.5L155,281.5z"/>
				<path class="fill-current text-white" d="M270,298h-4.5c0,5.5,0,8-3,8c-1.5,0-3-1.5-3-4.5c0-1,0-2,0-2.5c-0.5-7-2-10-10.5-12.5c9.5-1,15-5.5,15-12.5
					c0-8.5-6-12-18.5-12H211v5.5h4c4.5,0,5,0.5,5,4.5v29.5c0,3.5-2,4.5-5,4.5h-3.5c-3,0-4.5-1-6-4.5l-16-39.5h-12l-17,39.5
					C159,305,158,306,154,306h-2v6h26v-6h-5.5c-2.5,0-4,0-4-1.5c0-0.5,0.5-1.5,1-2.5l2.5-6h19l2.5,5.5c0.5,1,0.5,2,0.5,2.5
					c0,2-1.5,2-4,2h-5.5v6H241v-6h-4.5c-4.5,0-5,0-5-4.5v-13h5c8.5,0,11,1.5,11.5,10v5.5c0.5,7,5,9,12,9c6,0,10-3.5,10-13
					C270,299.5,270,298.5,270,298z M174,290l8-19l7.5,19H174z M242,282.5l-10.5,0.5v-15.5H242c7,0,10.5,2,10.5,7.5v0.5
					C252.5,280.5,249,282.5,242,282.5z"/>
				<path id="XMLID_7_" class="fill-current text-white" d="M314.5,278c-2.5-7.5-7.5-11-15.5-11c-8,0-14.5,6.5-14.5,19.5c0,13,5,19.5,14.5,20
					c6.5,0,12.5-3.5,12.5-9v-3c0-3.5-0.5-3.5-5.5-3.5h-2.5v-5.5H327v5.5h-2c-3.5,0-4,0-4,4v16.5h-4.5l-2.5-4c-4.5,3.5-11,5.5-17,5.5
					c-7,0-12.5-2.5-17-7.5c-5-5-8-11.5-8-19c0-8,2.5-14,7.5-19c4.5-4.5,11-6.5,18-6.5c5.5,0,12,1.5,15.5,5.5l2.5-5.5h4v17H314.5z"/>
				<path class="fill-current text-white" d="M360,312.5c-16.5,0-29.5-10-29.5-26c0-15.5,13-25.5,29.5-25.5c16.5,0,29,10,29,26
					C389,302.5,376.5,312.5,360,312.5z M377,287c0-18-12-20-17-20c-9.5,0-17,7-17,20c0,13,7.5,20,17,20C365,307,377,304.5,377,287z"
					/>
				<path id="XMLID_5_" class="fill-current text-white" d="M281.5,227.5c-1.5,3-5,3.5-11,3.5H258v-33.5c0-4,1-4.5,6-4.5h3.5v-6h-30v6h2.5
					c4.5,0,7,0,7,4.5V227c0,4-2,4.5-6.5,4.5H238v5.5h51.5v-20c0,0-5,0-6,0C283.5,221.5,283,224.5,281.5,227.5z"/>
				<path id="XMLID_14_" class="fill-current text-white" d="M216,231h-16v-17h3.5c6,0,7,1,7.5,9.5h5.5v-25H211c-0.5,7.5-1.5,9.5-7.5,9.5H200v-15h13.5
					c10,0,13,2,13.5,13.5h5.5V187c-52.5,0-3,0-49.5,0h-24.5v6h3.5c3,0,4,0.5,4,2c0,1,0,2-0.5,4l-9.5,25c0,0,0,0-0.5,0
					c-4.5-12.5-10.5-27-10.5-27c-0.5-1-0.5-1.5-0.5-2c0-1.5,1-2,3.5-2h4v-6h-26.5v6h3.5c4,0,5.5,2,6,6l-10,25c0,0,0,0-0.5,0
					c-4.5-13.5-10.5-27.5-10.5-27.5c-0.5-0.5,0-1,0-1.5c-0.5-1.5,1-2,4-2h2v-6H95v6h1c3.5,0,6.5,2,8,6.5l15,37.5h9l11-27.5
					l11.5,27.5h9l14-38c2-4.5,3-6,7.5-6h0.5c4.5,0,7,0,7,4.5c0,29.5,0,0,0,29.5c0,4-2.5,4.5-7,4.5h-3v5.5h55v-20h-6
					C227,227,225,231,216,231z"/>
				<path id="XMLID_15_" class="fill-current text-white" d="M337,217c0,4.5-0.5,7.5-2,10.5c-1.5,3-5,3.5-11,3.5h-12v-33.5c0-4,1-4.5,5.5-4.5h4v-6H291v6
					h3.5c4,0,6,0,6,4.5V227c0,4-1.5,4.5-6,4.5h-1v5.5H343v-20C343,217,338,217,337,217z"/>
				<path id="XMLID_16_" class="fill-current text-white" d="M394,222.5c0,11.5-9,15.5-22,15.5c-8,0-16-4.5-17.5-6l-2,5h-5v-20h6c1.5,9.5,8,13.5,17,14
					c8,0.5,13.5-1.5,14-7c1-6.5-6-6-12-7l-8.5-1.5c-12.5-2.5-17-6-17-14.5c-0.5-9,8-15,19-15c5.5,0,12.5,1,17.5,5l2.5-4h4.5v17.5
					H385c-1-9.5-11-12.5-19-12.5c-6,0.5-9.5,3.5-9.5,7.5c0,4,3.5,4.5,8,5.5l10.5,1.5C386,208.5,394,210.5,394,222.5z"/>
			</g>
		</g>
	</g>
</g>
</svg>
